<svg width="1146" height="750" viewBox="0 0 1146 750" fill="none" xmlns="http://www.w3.org/2000/svg">
<path d="M21.0479 310.799C23.8595 326.419 28.4284 341.492 34.6373 355.823L19.0564 364.727L40.9634 403.074L56.3491 394.287C65.5649 407.018 76.3426 418.576 88.2919 428.925L78.217 443.568L114.612 468.599L124.647 453.995C138.315 461.375 152.881 467.428 168.422 471.567L165.728 488.944L209.386 495.739L212.08 478.362C228.13 479.104 243.828 477.776 259.096 474.886L264.251 491.834L306.503 478.987L301.348 461.961C315.875 455.713 329.66 447.981 342.273 438.648L354.261 451.691L386.79 421.778L374.645 408.58C384.915 396.826 393.858 383.861 401.238 369.803L417.951 376.441L434.274 335.4L417.522 328.722C419.514 321.381 421.232 313.883 422.403 306.191C423.653 298.185 424.278 290.219 424.551 282.292L442.67 281.003L439.546 236.955L421.271 238.244C418.42 222.702 413.812 207.707 407.564 193.453L423.575 184.316L401.668 145.969L385.735 155.067C376.559 142.454 365.781 131.052 353.871 120.782L364.414 105.435L328.02 80.4039L317.437 95.7505C303.887 88.4482 289.399 82.5126 274.052 78.3733L276.903 60.0589L233.245 53.2642L230.395 71.5786C214.501 70.8366 198.92 72.1253 183.769 74.9759L178.341 57.1301L136.089 69.9775L141.478 87.7843C127.069 93.9542 113.323 101.569 100.749 110.785L88.331 97.2735L55.8024 127.186L68.2593 140.736C57.9892 152.412 49.0467 165.298 41.6272 179.239L24.7577 172.601L8.43479 213.642L25.3434 220.359C23.2347 227.974 21.3994 235.745 20.1498 243.789C18.9392 251.482 18.3144 259.135 18.002 266.75L0 268L3.124 312.048L21.0479 310.799ZM229.965 102.389L221.569 156.551C221.491 156.551 221.452 156.551 221.374 156.551C182.363 156.551 147.843 175.647 126.327 204.895L77.0846 179.981C110.082 129.997 167.641 99.1869 229.965 102.389ZM184.511 284.987L139.799 330.011C129.021 314.196 122.656 295.1 122.656 274.521C122.656 264.368 124.647 254.801 127.498 245.585L183.379 273.818C183.222 277.684 183.535 281.433 184.511 284.987ZM144.094 213.838C161.628 191.579 188.26 176.974 218.523 176.076L208.722 239.142C206.067 240.079 203.606 241.251 201.224 242.734L144.094 213.838ZM250.388 368.397C241.172 371.248 231.527 373.239 221.374 373.239C200.404 373.239 181.036 366.562 165.064 355.394L209.151 311.033C211.182 311.736 213.291 312.322 215.478 312.673C217.664 313.024 219.851 313.063 221.999 313.024L250.388 368.397ZM253.942 181.738C281.511 191.423 303.379 212.783 313.61 240.079L250.193 250.31C248.397 248.201 246.366 246.327 244.14 244.609L253.942 181.738ZM387.532 228.13L333.135 236.916C321.147 201.381 292.757 173.382 256.988 162.018L265.383 107.856C325.716 123.71 371.248 170.57 387.532 228.13ZM291.195 369.412C320.366 347.896 339.383 313.415 339.383 274.521C339.383 273.74 339.266 272.998 339.266 272.256L393.662 263.47C394.483 275.927 394.092 288.657 392.1 301.505C384.33 351.528 355.745 393.038 316.617 418.928L291.195 369.412ZM282.136 351.762L253.317 295.647C255.309 292.562 256.792 289.087 257.808 285.377L320.014 275.341C319.78 306.425 304.863 333.838 282.136 351.762ZM112.073 408.736L151.319 369.256C170.922 383.822 195.133 392.53 221.374 392.53C234.729 392.53 247.499 390.187 259.448 386.087L284.83 435.563C257.144 446.536 226.333 450.675 194.781 445.794C163.229 440.874 135.113 427.597 112.073 408.736ZM50.4916 248.475C52.4831 235.627 55.9586 223.366 60.5274 211.729L109.691 236.604C105.669 248.514 103.365 261.244 103.365 274.521C103.365 300.411 111.839 324.31 126.053 343.796L86.8471 383.275C57.4034 346.724 42.7597 298.498 50.4916 248.475Z" fill="#E4DFF6"/>
<path d="M1146 0V629.758H598.054C572.593 629.758 551.936 608.711 552.717 582.977C553.498 558.18 575.092 539.045 599.967 539.045H672.756C697.787 539.045 718.093 518.779 718.093 493.708C718.093 468.834 698.139 448.684 673.303 448.371H640.032C614.494 448.371 593.914 427.324 594.695 401.59C595.437 376.793 617.071 357.658 641.907 357.658H856.096C880.971 357.658 902.565 338.485 903.307 313.688C903.854 293.773 891.553 276.708 874.137 270.069H598.054C572.593 270.069 551.936 249.021 552.717 223.288C553.498 198.491 575.092 179.356 599.967 179.356H1076.53C1100.9 179.356 1122.14 160.769 1123.35 136.401C1124.45 114.807 1110.39 96.3362 1090.9 90.5959H1005.42C979.962 90.5959 959.383 69.548 960.164 43.8921C960.906 19.1345 982.579 0 1007.38 0H1146Z" fill="#E4DFF6"/>
<path d="M1070.87 126.561H1007.26C1003.66 126.561 1000.73 129.49 1000.73 133.082C1000.73 136.675 1003.66 139.603 1007.26 139.603H1070.87C1074.46 139.603 1077.39 136.675 1077.39 133.082C1077.39 129.45 1074.46 126.561 1070.87 126.561ZM982.381 126.561H715.123C711.53 126.561 708.602 129.49 708.602 133.082C708.602 136.675 711.53 139.603 715.123 139.603H982.381C985.973 139.603 988.902 136.675 988.902 133.082C988.902 129.45 985.973 126.561 982.381 126.561Z" fill="#CDC2F2"/>
<path d="M578.841 487.188H548.108C544.516 487.188 541.587 490.116 541.587 493.709C541.587 497.302 544.516 500.23 548.108 500.23H578.841C582.433 500.23 585.362 497.302 585.362 493.709C585.362 490.116 582.433 487.188 578.841 487.188ZM527.178 487.188H515.072C511.48 487.188 508.551 490.116 508.551 493.709C508.551 497.302 511.48 500.23 515.072 500.23H527.178C530.77 500.23 533.699 497.302 533.699 493.709C533.699 490.116 530.77 487.188 527.178 487.188ZM667.406 487.188H600.396C596.804 487.188 593.875 490.116 593.875 493.709C593.875 497.302 596.804 500.23 600.396 500.23H667.406C670.999 500.23 673.927 497.302 673.927 493.709C673.927 490.116 670.999 487.188 667.406 487.188Z" fill="#DBD5F0"/>
<path d="M976.524 227.271H945.792C942.199 227.271 939.271 230.2 939.271 233.792C939.271 237.385 942.199 240.314 945.792 240.314H976.524C980.117 240.314 983.046 237.385 983.046 233.792C983.046 230.161 980.117 227.271 976.524 227.271ZM924.861 227.271H912.756C909.163 227.271 906.234 230.2 906.234 233.792C906.234 237.385 909.163 240.314 912.756 240.314H924.861C928.454 240.314 931.382 237.385 931.382 233.792C931.343 230.161 928.454 227.271 924.861 227.271ZM1065.05 227.271H998.041C994.448 227.271 991.519 230.2 991.519 233.792C991.519 237.385 994.448 240.314 998.041 240.314H1065.05C1068.64 240.314 1071.57 237.385 1071.57 233.792C1071.57 230.161 1068.64 227.271 1065.05 227.271Z" fill="white"/>
<path d="M884.796 37.5663H931.383C934.975 37.5663 937.904 40.4951 937.904 44.0877C937.904 47.6803 934.975 50.609 931.383 50.609H884.796C881.203 50.609 878.275 47.6803 878.275 44.0877C878.275 40.4951 881.203 37.5663 884.796 37.5663ZM840.006 37.5663H863.279C866.872 37.5663 869.801 40.4951 869.801 44.0877C869.801 47.6803 866.872 50.609 863.279 50.609H840.006C836.413 50.609 833.484 47.6803 833.484 44.0877C833.484 40.4951 836.413 37.5663 840.006 37.5663Z" fill="#CDC2F2"/>
<path d="M901.235 487.188H913.692C917.284 487.188 920.213 490.116 920.213 493.709C920.213 497.302 917.284 500.23 913.692 500.23H901.235C897.642 500.23 894.713 497.302 894.713 493.709C894.713 490.116 897.642 487.188 901.235 487.188ZM832.624 487.188H879.211C882.803 487.188 885.732 490.116 885.732 493.709C885.732 497.302 882.803 500.23 879.211 500.23H832.624C829.031 500.23 826.103 497.302 826.103 493.709C826.103 490.116 829.031 487.188 832.624 487.188ZM787.834 487.188H811.108C814.7 487.188 817.629 490.116 817.629 493.709C817.629 497.302 814.7 500.23 811.108 500.23H787.834C784.241 500.23 781.312 497.302 781.312 493.709C781.312 490.116 784.241 487.188 787.834 487.188Z" fill="white"/>
<path d="M1146 622.691V749.76H239.219C235.04 729.024 216.765 713.404 194.741 713.404H121.913C97.1158 713.404 75.4431 694.231 74.7012 669.395C73.9202 643.739 94.5385 622.691 120.038 622.691H1146Z" fill="#CDC2F2"/>
<path d="M406.627 671.348H272.881C269.288 671.348 266.359 668.419 266.359 664.827C266.359 661.234 269.288 658.305 272.881 658.305H406.627C410.219 658.305 413.148 661.234 413.148 664.827C413.109 668.419 410.219 671.348 406.627 671.348ZM475.277 671.348H428.69C425.097 671.348 422.169 668.419 422.169 664.827C422.169 661.234 425.097 658.305 428.69 658.305H475.277C478.869 658.305 481.798 661.234 481.798 664.827C481.759 668.419 478.869 671.348 475.277 671.348ZM520.067 671.348H496.793C493.2 671.348 490.272 668.419 490.272 664.827C490.272 661.234 493.2 658.305 496.793 658.305H520.067C523.659 658.305 526.588 661.234 526.588 664.827C526.549 668.419 523.659 671.348 520.067 671.348Z" fill="white"/>
<path d="M441.659 525.378C469.931 409.79 455.132 261.986 403.117 220.828C390.738 211.026 372.424 212.861 362.661 225.279C321.19 277.841 365.082 435.524 441.659 525.378Z" fill="#7B58F8"/>
<path d="M391.17 292.367C385.43 292.133 379.064 289.517 372.231 284.596C371.723 284.206 371.567 283.464 371.957 282.956C372.348 282.41 373.09 282.331 373.597 282.683C382.267 288.931 389.92 291.157 396.403 289.399C391.912 269.172 388.202 253.005 385.859 243.242C385.703 242.618 386.093 241.954 386.718 241.837C387.343 241.68 388.007 242.071 388.124 242.696C390.467 252.419 394.177 268.547 398.628 288.658C408 284.596 411.632 272.725 411.671 272.608C411.866 271.983 412.53 271.632 413.155 271.827C413.78 272.022 414.131 272.647 413.936 273.272C413.78 273.819 409.836 286.666 399.136 291.001C403.002 308.612 407.454 329.152 412.023 351.216C427.721 346.92 435.257 327.903 435.335 327.707C435.57 327.083 436.273 326.77 436.858 327.044C437.483 327.278 437.756 327.942 437.522 328.567C437.21 329.426 429.478 348.99 412.491 353.519C416.006 370.545 419.598 388.391 423.113 406.51C423.542 406.432 423.972 406.432 424.401 406.315C434.828 404.05 440.178 393.936 440.256 393.819C440.568 393.233 441.271 393.038 441.857 393.311C442.443 393.624 442.677 394.327 442.364 394.912C442.13 395.381 436.468 406.12 424.948 408.619C424.48 408.736 424.011 408.736 423.581 408.814C426.549 424.083 429.4 439.468 432.094 454.62C432.446 454.542 432.797 454.503 433.11 454.425C439.084 452.589 441.154 445.404 441.193 445.365C441.349 444.74 442.013 444.35 442.638 444.545C443.263 444.74 443.614 445.365 443.458 445.99C443.38 446.341 440.998 454.464 433.812 456.689C433.383 456.807 432.953 456.885 432.524 456.963C442.13 511.164 449.432 561.929 449.55 591.412C449.55 592.076 449.042 592.583 448.378 592.583H448.339C447.714 592.544 447.207 592.037 447.207 591.412C447.089 562.007 439.826 511.32 430.22 457.158C430.025 457.158 429.829 457.197 429.595 457.197C424.831 457.002 419.403 454.346 413.389 449.309C412.882 448.879 412.843 448.138 413.233 447.669C413.663 447.161 414.405 447.083 414.873 447.513C420.535 452.277 425.534 454.698 429.751 454.815C427.057 439.664 424.167 424.317 421.238 409.049C420.575 409.088 419.911 409.127 419.247 409.088C412.647 408.814 405.657 405.768 398.355 399.989C397.847 399.598 397.769 398.856 398.16 398.349C398.55 397.841 399.292 397.763 399.8 398.154C407.258 404.05 414.288 406.901 420.809 406.706C417.333 388.704 413.741 370.936 410.226 354.027C408.274 354.379 406.321 354.535 404.33 354.457C394.567 354.066 383.985 348.599 372.777 338.173C372.309 337.743 372.27 337.001 372.699 336.494C373.129 336.025 373.871 335.986 374.378 336.455C387.265 348.443 399.136 353.519 409.719 351.684C405.15 329.699 400.737 309.237 396.871 291.664C395.075 292.172 393.161 292.445 391.17 292.367Z" fill="white"/>
<path d="M464.814 519.014C413.503 374.099 413.347 182.169 474.85 122.461C489.494 108.247 513.275 108.247 527.45 122.93C587.626 185.137 551.622 393.585 464.814 519.014Z" fill="#6438FF"/>
<path d="M499.53 212.901C506.911 211.847 514.721 207.668 522.843 200.444C523.468 199.897 523.546 198.921 522.96 198.296C522.414 197.672 521.437 197.633 520.813 198.179C510.503 207.317 500.936 211.183 492.345 209.777C495.469 183.184 498.164 161.902 499.882 149.054C499.999 148.234 499.413 147.453 498.593 147.336C497.734 147.18 496.992 147.805 496.875 148.625C495.157 161.433 492.462 182.637 489.338 209.074C476.764 205.091 470.555 190.291 470.477 190.135C470.165 189.354 469.267 188.963 468.486 189.315C467.705 189.627 467.353 190.525 467.666 191.306C467.939 192.009 474.656 208.02 488.987 212.159C486.292 235.316 483.247 262.26 480.24 291.274C459.504 287.76 447.36 264.33 447.242 264.096C446.852 263.354 445.954 263.041 445.212 263.432C444.47 263.822 444.158 264.72 444.548 265.462C445.056 266.517 457.552 290.689 479.966 294.32C477.662 316.657 475.319 340.087 473.172 363.829C472.586 363.79 472.039 363.829 471.453 363.751C457.747 362.228 449.546 349.888 449.468 349.771C449 349.068 448.063 348.873 447.36 349.342C446.657 349.81 446.461 350.747 446.93 351.45C447.282 351.997 455.951 365.118 471.102 366.797C471.688 366.875 472.313 366.836 472.898 366.875C471.102 386.869 469.384 407.057 467.9 426.856C467.47 426.817 467.002 426.817 466.572 426.739C458.684 425.177 455.052 416.195 455.013 416.117C454.701 415.336 453.803 414.946 453.022 415.258C452.241 415.57 451.85 416.429 452.163 417.249C452.319 417.679 456.419 427.793 465.947 429.745C466.494 429.863 467.08 429.902 467.666 429.941C462.316 500.894 459.543 567.084 463.253 605.041C463.331 605.9 464.073 606.485 464.932 606.407C464.971 606.407 464.971 606.407 465.01 606.407C465.83 606.29 466.377 605.548 466.299 604.767C462.628 566.928 465.401 500.816 470.751 429.941C471.024 429.902 471.258 429.941 471.532 429.902C477.623 429.043 484.262 424.942 491.33 417.679C491.916 417.093 491.916 416.117 491.291 415.531C490.666 414.945 489.729 414.945 489.143 415.57C482.466 422.404 476.374 426.153 470.946 426.895C472.469 407.096 474.148 386.947 475.983 366.953C476.842 366.914 477.701 366.875 478.561 366.758C486.995 365.547 495.586 360.744 504.255 352.348C504.841 351.763 504.88 350.786 504.294 350.201C503.709 349.576 502.732 349.576 502.147 350.162C493.321 358.714 484.652 363.282 476.257 363.907C478.404 340.321 480.708 317.008 483.012 294.789C485.55 294.984 488.089 294.945 490.666 294.594C503.201 292.797 516.087 284.402 529.091 269.563C529.638 268.938 529.599 267.962 528.935 267.415C528.31 266.868 527.334 266.946 526.787 267.571C511.792 284.675 497.187 292.719 483.325 291.743C486.331 262.885 489.338 236.019 492.072 212.94C494.493 213.135 496.992 213.253 499.53 212.901Z" fill="white"/>
<path d="M497.263 621.129H415.922C415.063 620.27 414.243 619.45 413.423 618.512C412.368 617.38 411.314 616.208 410.377 614.998C409.635 614.1 408.893 613.241 408.229 612.342C408.19 612.225 408.112 612.108 407.995 611.991C407.604 611.522 407.331 611.093 406.94 610.624C406.394 609.843 405.808 609.062 405.3 608.32C404.832 607.578 404.402 606.915 403.934 606.212C403.035 604.845 402.137 603.439 401.317 602.033C389.524 581.923 386.673 559.469 392.804 538.46C395.225 530.103 403.192 524.519 411.9 524.519H450.911C452.785 524.558 454.62 524.558 456.573 524.558C458.447 524.558 460.361 524.558 462.157 524.519H501.285C510.032 524.519 517.959 530.181 520.381 538.538C528.464 566.537 520.81 596.957 497.263 621.129Z" fill="#5F3DD9"/>
<path d="M520.381 538.577C518.78 533.071 514.797 528.776 509.76 526.472C509.877 527.019 520.615 584.461 484.455 601.448C455.402 615.076 414.595 603.361 393.664 584.656C395.578 590.592 398.077 596.449 401.396 602.112C402.177 603.517 403.075 604.923 404.012 606.29C404.481 606.954 404.91 607.657 405.379 608.399C405.887 609.141 406.433 609.922 407.019 610.703C407.41 611.171 407.683 611.601 408.074 612.069C408.191 612.186 408.23 612.304 408.308 612.421C408.972 613.319 409.714 614.178 410.456 615.076C411.432 616.248 412.447 617.458 413.501 618.591C414.282 619.489 415.142 620.348 416.001 621.207H497.342C520.811 596.957 528.464 566.537 520.381 538.577Z" fill="#E6E6E8"/>
<path d="M1146 621.168V627.221H112.507C110.867 627.221 109.5 625.893 109.5 624.214C109.5 622.535 110.906 621.207 112.507 621.207H1146V621.168Z" fill="#3300E7"/>
<path d="M836.016 216.805H581.293V585.32H836.016V216.805Z" fill="#634FAB"/>
<path d="M836.016 216.806H581.293V244.414H836.016V216.806Z" fill="#7B58F8"/>
<path d="M797.437 278.232H619.877C615.972 278.232 612.848 281.395 612.848 285.261V402.84C612.848 406.745 616.011 409.869 619.877 409.869H797.437C801.342 409.869 804.466 406.706 804.466 402.84V285.261C804.466 281.395 801.303 278.232 797.437 278.232Z" fill="white"/>
<path d="M723.244 342.625L695.011 326.341C693.878 325.716 692.512 326.497 692.512 327.786V360.353C692.512 361.642 693.918 362.462 695.011 361.798L723.244 345.514C724.376 344.851 724.376 343.25 723.244 342.625Z" fill="#634FAB"/>
<path d="M650.574 440.054H616.874C614.648 440.054 612.812 441.85 612.812 444.115V477.815C612.812 480.041 614.609 481.876 616.874 481.876H650.574C652.8 481.876 654.635 480.08 654.635 477.815V444.115C654.635 441.889 652.8 440.054 650.574 440.054Z" fill="white"/>
<path d="M712.469 440.054H683.806C679.823 440.054 676.621 443.295 676.621 447.239C676.621 451.222 679.862 454.424 683.806 454.424H712.469C716.452 454.424 719.654 451.183 719.654 447.239C719.654 443.295 716.452 440.054 712.469 440.054Z" fill="white"/>
<path d="M793.927 471.762H676.621V477.62H793.927V471.762Z" fill="white"/>
<path d="M793.927 488.437H676.621V494.294H793.927V488.437Z" fill="white"/>
<path d="M793.927 505.072H676.621V510.93H793.927V505.072Z" fill="white"/>
<path d="M767.178 521.746H676.621V527.604H767.178V521.746Z" fill="white"/>
<path d="M793.927 537.718H676.621V543.575H793.927V537.718Z" fill="white"/>
<path d="M793.927 554.392H676.621V560.249H793.927V554.392Z" fill="white"/>
<path d="M1088.51 216.805H833.789V585.32H1088.51V216.805Z" fill="#634FAB"/>
<path d="M1088.51 216.806H833.789V244.414H1088.51V216.806Z" fill="#7B58F8"/>
<path d="M1049.94 278.232H872.377C868.472 278.232 865.348 281.395 865.348 285.261V402.84C865.348 406.745 868.511 409.869 872.377 409.869H1049.94C1053.84 409.869 1056.97 406.706 1056.97 402.84V285.261C1056.97 281.395 1053.84 278.232 1049.94 278.232Z" fill="white"/>
<path d="M975.783 342.625L947.55 326.341C946.418 325.716 945.051 326.497 945.051 327.786V360.353C945.051 361.642 946.457 362.462 947.55 361.798L975.783 345.514C976.877 344.851 976.877 343.25 975.783 342.625Z" fill="#634FAB"/>
<path d="M903.07 440.054H869.37C867.144 440.054 865.309 441.85 865.309 444.115V477.815C865.309 480.041 867.105 481.876 869.37 481.876H903.07C905.296 481.876 907.131 480.08 907.131 477.815V444.115C907.131 441.889 905.335 440.054 903.07 440.054Z" fill="white"/>
<path d="M965.004 440.054H936.341C932.358 440.054 929.156 443.295 929.156 447.239C929.156 451.222 932.397 454.424 936.341 454.424H965.004C968.987 454.424 972.189 451.183 972.189 447.239C972.189 443.295 968.987 440.054 965.004 440.054Z" fill="white"/>
<path d="M1046.46 471.762H929.156V477.62H1046.46V471.762Z" fill="white"/>
<path d="M1046.46 488.437H929.156V494.294H1046.46V488.437Z" fill="white"/>
<path d="M1046.46 505.072H929.156V510.93H1046.46V505.072Z" fill="white"/>
<path d="M1019.71 521.746H929.156V527.604H1019.71V521.746Z" fill="white"/>
<path d="M1046.46 537.718H929.156V543.575H1046.46V537.718Z" fill="white"/>
<path d="M1046.46 554.392H929.156V560.249H1046.46V554.392Z" fill="white"/>
<path d="M708.133 665.294L661.859 607.305H664.436V489.335V464.694H478.285V489.374V607.344H638.351L641.358 611.132C640.03 612.303 639.249 614.021 639.249 615.583C639.249 616.911 639.757 618.2 640.577 619.254L689.663 680.758C691.615 683.257 695.169 683.491 697.512 681.539L707.313 673.299C709.812 671.347 710.086 667.793 708.133 665.294Z" fill="#D2D1D4"/>
<path d="M796.188 436.735V461.375V608.437H1044.27V461.375V436.735H796.188Z" fill="#D2D1D4"/>
<path d="M945.517 237.814H761.357C760.459 237.814 759.6 238.01 758.819 238.322C756.476 239.298 754.836 241.641 754.836 244.336V254.059V309.9C754.836 313.493 757.765 316.422 761.357 316.422H945.556C949.148 316.422 952.077 313.493 952.077 309.9V254.059V244.336C952.077 240.743 949.148 237.814 945.517 237.814ZM952.077 338.251C952.077 336.454 951.335 334.814 950.164 333.643C949.578 333.057 948.875 332.588 948.094 332.237C947.313 331.925 946.454 331.729 945.556 331.729H761.357C760.459 331.729 759.6 331.925 758.819 332.237C758.038 332.549 757.335 333.057 756.749 333.643C756.164 334.229 755.695 334.931 755.344 335.712C755.031 336.493 754.836 337.353 754.836 338.251V347.974V403.816C754.836 407.408 757.765 410.337 761.357 410.337H945.556C949.148 410.337 952.077 407.408 952.077 403.816V347.974V338.251Z" fill="#D2D1D4"/>
<path d="M1031.54 474.144H783.414V621.206H1031.54V474.144Z" fill="#6438FF"/>
<path d="M1031.54 449.465H783.414V474.144H1031.54V449.465Z" fill="#7B58F8"/>
<path d="M833.866 541.232C818.519 541.232 806.062 528.736 806.062 513.39C806.062 498.043 818.519 485.586 833.866 485.586C849.213 485.586 861.67 498.043 861.67 513.39C861.67 528.736 849.213 541.232 833.866 541.232ZM833.866 501.44C827.267 501.44 821.917 506.79 821.917 513.39C821.917 519.989 827.267 525.339 833.866 525.339C840.465 525.339 845.815 519.989 845.815 513.39C845.815 506.79 840.465 501.44 833.866 501.44Z" fill="#E6E6E8"/>
<path d="M858.273 505.501L847.3 509.055C847.769 510.422 848.003 511.906 848.003 513.429C848.003 514.952 847.769 516.396 847.3 517.802C846.402 520.653 844.566 523.113 842.184 524.831C839.88 526.549 836.991 527.526 833.906 527.526C830.821 527.526 827.931 526.549 825.627 524.831C823.245 523.074 821.41 520.614 820.512 517.763C820.043 516.396 819.809 514.913 819.809 513.39C819.809 511.867 820.043 510.422 820.512 509.016C821.449 506.165 823.245 503.705 825.627 501.987C827.931 500.269 830.821 499.293 833.906 499.293V487.734C828.283 487.734 823.089 489.569 818.832 492.615C814.498 495.778 811.179 500.269 809.5 505.462C808.68 507.962 808.25 510.578 808.25 513.351C808.25 516.123 808.68 518.778 809.5 521.278C811.179 526.51 814.498 531.001 818.832 534.125C823.089 537.21 828.283 539.006 833.906 539.006C839.568 539.006 844.762 537.171 849.018 534.086C853.353 530.923 856.633 526.471 858.312 521.239C859.132 518.739 859.562 516.084 859.562 513.311C859.523 510.617 859.093 508.001 858.273 505.501Z" fill="white"/>
<path d="M833.866 606.523C818.519 606.523 806.062 594.028 806.062 578.681C806.062 563.334 818.519 550.877 833.866 550.877C849.213 550.877 861.67 563.334 861.67 578.681C861.67 594.028 849.213 606.523 833.866 606.523ZM833.866 566.732C827.267 566.732 821.917 572.081 821.917 578.681C821.917 585.28 827.267 590.63 833.866 590.63C840.465 590.63 845.815 585.28 845.815 578.681C845.815 572.081 840.465 566.732 833.866 566.732Z" fill="#E6E6E8"/>
<path d="M858.273 570.754C856.633 565.56 853.314 561.069 848.979 557.906L842.184 567.239C844.566 568.958 846.402 571.418 847.3 574.268C847.769 575.635 848.003 577.119 848.003 578.642C848.003 580.165 847.769 581.61 847.3 583.015C846.363 585.866 844.566 588.326 842.184 590.044C839.88 591.763 836.991 592.739 833.906 592.739C830.782 592.739 827.931 591.763 825.627 590.044C823.245 588.326 821.41 585.866 820.512 583.015C820.043 581.649 819.809 580.165 819.809 578.642C819.809 577.119 820.043 575.674 820.512 574.268C821.449 571.418 823.245 568.958 825.627 567.239C827.931 565.521 830.821 564.545 833.906 564.545V552.986C828.244 552.986 823.05 554.821 818.793 557.906C814.459 561.069 811.14 565.56 809.5 570.754C808.68 573.253 808.25 575.869 808.25 578.642C808.25 581.414 808.68 584.07 809.5 586.569C811.179 591.802 814.459 596.253 818.793 599.416C823.011 602.501 828.244 604.337 833.906 604.337C839.568 604.337 844.762 602.501 849.018 599.416C853.353 596.253 856.633 591.802 858.312 586.569C859.132 584.07 859.562 581.414 859.562 578.642C859.562 575.869 859.093 573.253 858.273 570.754Z" fill="white"/>
<path d="M973.708 487.733H878.777V494.567H973.708V487.733Z" fill="white"/>
<path d="M1008.85 502.728H878.777V505.501H1008.85V502.728Z" fill="#6E6D71"/>
<path d="M1008.85 510.616H878.777V513.389H1008.85V510.616Z" fill="#6E6D71"/>
<path d="M1008.85 518.544H878.777V521.316H1008.85V518.544Z" fill="#6E6D71"/>
<path d="M996.201 526.432H878.777V529.204H996.201V526.432Z" fill="#6E6D71"/>
<path d="M973.708 550.877H878.777V557.711H973.708V550.877Z" fill="white"/>
<path d="M1008.85 565.872H878.777V568.645H1008.85V565.872Z" fill="#6E6D71"/>
<path d="M1008.85 573.76H878.777V576.533H1008.85V573.76Z" fill="#6E6D71"/>
<path d="M1008.85 581.648H878.777V584.421H1008.85V581.648Z" fill="#6E6D71"/>
<path d="M1008.85 589.537H878.777V592.309H1008.85V589.537Z" fill="#6E6D71"/>
<path d="M944.498 597.425H878.777V600.197H944.498V597.425Z" fill="#6E6D71"/>
<path d="M932.743 250.584H748.545C744.952 250.584 742.023 253.512 742.023 257.105V322.67C742.023 326.262 744.952 329.191 748.545 329.191H932.743C936.336 329.191 939.265 326.262 939.265 322.67V257.105C939.304 253.512 936.375 250.584 932.743 250.584Z" fill="#7B58F8"/>
<path d="M932.743 250.584H748.545C744.952 250.584 742.023 253.512 742.023 257.105V266.828H939.265V257.105C939.304 253.512 936.375 250.584 932.743 250.584Z" fill="#6438FF"/>
<path d="M888.814 277.137H811.886C810.285 277.137 808.996 278.425 808.996 280.027C808.996 281.628 810.285 282.916 811.886 282.916H888.814C890.415 282.916 891.704 281.628 891.704 280.027C891.704 278.425 890.415 277.137 888.814 277.137ZM920.249 289.828H810.129C809.465 289.828 808.957 290.336 808.957 291C808.957 291.663 809.465 292.171 810.129 292.171H920.249C920.913 292.171 921.421 291.663 921.421 291C921.421 290.375 920.913 289.828 920.249 289.828ZM920.249 296.506H810.129C809.465 296.506 808.957 297.013 808.957 297.677C808.957 298.341 809.465 298.849 810.129 298.849H920.249C920.913 298.849 921.421 298.341 921.421 297.677C921.421 297.013 920.913 296.506 920.249 296.506ZM920.249 303.183H810.129C809.465 303.183 808.957 303.691 808.957 304.355C808.957 305.019 809.465 305.526 810.129 305.526H920.249C920.913 305.526 921.421 305.019 921.421 304.355C921.421 303.691 920.913 303.183 920.249 303.183ZM909.55 309.861H810.168C809.504 309.861 808.996 310.368 808.996 311.032C808.996 311.696 809.504 312.204 810.168 312.204H909.55C910.214 312.204 910.721 311.696 910.721 311.032C910.721 310.368 910.214 309.861 909.55 309.861Z" fill="white"/>
<path d="M774.867 276.122C764.714 276.122 755.498 280.262 748.82 286.9L752.218 290.297C758.036 284.479 766.002 280.886 774.867 280.886C783.731 280.886 791.697 284.479 797.516 290.297H797.555L800.913 286.9C794.235 280.223 785.02 276.122 774.867 276.122ZM774.867 284.479C767.018 284.479 759.91 287.681 754.795 292.836L758.153 296.194C762.41 291.899 768.345 289.243 774.867 289.243C781.388 289.243 787.324 291.899 791.619 296.155L794.977 292.797C789.862 287.681 782.716 284.479 774.867 284.479ZM774.867 292.875C769.322 292.875 764.323 295.14 760.692 298.771L764.05 302.13C766.822 299.357 770.649 297.639 774.867 297.639C779.084 297.639 782.911 299.357 785.683 302.13H785.722L789.081 298.732C785.449 295.101 780.412 292.875 774.867 292.875ZM780.373 306.542C780.373 309.588 777.912 312.009 774.906 312.009C771.86 312.009 769.439 309.549 769.439 306.542C769.439 303.496 771.899 301.075 774.906 301.075C777.912 301.075 780.373 303.535 780.373 306.542Z" fill="white"/>
<path d="M932.743 344.46H748.545C744.952 344.46 742.023 347.388 742.023 350.981V416.546C742.023 420.138 744.952 423.067 748.545 423.067H932.743C936.336 423.067 939.265 420.138 939.265 416.546V351.02C939.304 347.388 936.375 344.46 932.743 344.46Z" fill="#7B58F8"/>
<path d="M932.743 344.46H748.545C744.952 344.46 742.023 347.388 742.023 350.981V360.705H939.265V350.981C939.304 347.388 936.375 344.46 932.743 344.46Z" fill="#6438FF"/>
<path d="M888.814 371.053H811.886C810.285 371.053 808.996 372.342 808.996 373.943C808.996 375.544 810.285 376.833 811.886 376.833H888.814C890.415 376.833 891.704 375.544 891.704 373.943C891.704 372.342 890.415 371.053 888.814 371.053ZM920.249 383.745H810.129C809.465 383.745 808.957 384.252 808.957 384.916C808.957 385.58 809.465 386.088 810.129 386.088H920.249C920.913 386.088 921.421 385.58 921.421 384.916C921.421 384.252 920.913 383.745 920.249 383.745ZM920.249 390.383H810.129C809.465 390.383 808.957 390.891 808.957 391.555C808.957 392.219 809.465 392.726 810.129 392.726H920.249C920.913 392.726 921.421 392.219 921.421 391.555C921.421 390.891 920.913 390.383 920.249 390.383ZM920.249 397.061H810.129C809.465 397.061 808.957 397.568 808.957 398.232C808.957 398.896 809.465 399.404 810.129 399.404H920.249C920.913 399.404 921.421 398.896 921.421 398.232C921.421 397.607 920.913 397.061 920.249 397.061ZM909.55 403.738H810.168C809.504 403.738 808.996 404.246 808.996 404.91C808.996 405.574 809.504 406.081 810.168 406.081H909.55C910.214 406.081 910.721 405.574 910.721 404.91C910.721 404.285 910.214 403.738 909.55 403.738Z" fill="white"/>
<path d="M784.121 366.054H761.55C760.691 366.054 760.027 366.757 760.027 367.577V413.227C760.027 414.086 760.73 414.75 761.55 414.75H784.121C784.98 414.75 785.644 414.047 785.644 413.227V367.577C785.644 366.718 784.98 366.054 784.121 366.054ZM771.118 367.812H774.554C774.749 367.812 774.905 367.968 774.905 368.163C774.905 368.358 774.749 368.515 774.554 368.515H771.118C770.922 368.515 770.766 368.358 770.766 368.163C770.766 367.968 770.922 367.812 771.118 367.812ZM783.887 409.79C783.887 410.376 783.418 410.806 782.872 410.806H762.839C762.253 410.806 761.785 410.337 761.785 409.79V371.17C761.785 370.584 762.253 370.155 762.839 370.155H782.872C783.457 370.155 783.887 370.623 783.887 371.17V409.79Z" fill="white"/>
<path d="M645.768 503.16H459.617V621.13H645.768V503.16Z" fill="#6438FF"/>
<path d="M645.768 478.519H459.617V503.199H645.768V478.519Z" fill="#7B58F8"/>
<path d="M599.88 606.368H505.496C505.496 579.501 522.912 564.272 545.796 564.272H559.619C582.464 564.311 599.88 579.54 599.88 606.368ZM552.668 517.92C541.734 517.92 532.831 526.784 532.831 537.757C532.831 548.691 541.695 557.594 552.668 557.594C563.641 557.594 572.506 548.73 572.506 537.757C572.506 526.823 563.641 517.92 552.668 517.92Z" fill="#634FAB"/>
<path d="M689.465 679.118L640.379 617.614C638.427 615.115 634.873 614.881 632.53 616.833L632.14 617.106L616.832 598.011C634.366 579.423 635.928 549.98 619.566 529.556C601.915 507.454 570.09 504.174 548.495 522.215C526.9 540.256 523.62 572.863 541.31 594.848C557.672 615.388 586.217 619.723 607.538 605.86L622.729 624.955C621.401 626.127 620.62 627.845 620.62 629.407C620.62 630.735 621.128 632.023 621.948 633.078L671.034 694.581C672.986 697.081 676.54 697.315 678.883 695.362L688.684 687.123C691.144 685.131 691.418 681.617 689.465 679.118ZM580.438 600.862C558.57 600.862 540.919 583.211 540.919 561.46C540.919 539.592 558.57 521.942 580.438 521.942C602.15 521.942 619.839 539.592 619.839 561.46C619.839 583.172 602.15 600.862 580.438 600.862Z" fill="#7B58F8"/>
<path d="M994.094 164.83V252.575H1011.94V274.521L1032.4 252.575H1105.93V164.83H994.094Z" fill="#D2D1D4"/>
<path d="M644.675 315.133C672.259 315.133 694.62 292.772 694.62 265.188C694.62 237.604 672.259 215.243 644.675 215.243C617.092 215.243 594.73 237.604 594.73 265.188C594.73 292.772 617.092 315.133 644.675 315.133Z" fill="#D2D1D4"/>
<path d="M1095 175.764V263.509H1021.47L1001.01 285.455V263.509H983.16V175.764H1095Z" fill="#6438FF"/>
<path d="M1012.57 225.67C1012.92 227.74 1013.54 229.731 1014.36 231.645L1012.29 232.816L1015.18 237.893L1017.21 236.721C1018.42 238.4 1019.87 239.923 1021.43 241.29L1020.1 243.242L1024.91 246.562L1026.23 244.609C1028.03 245.585 1029.98 246.366 1032.01 246.952L1031.66 249.256L1037.44 250.154L1037.79 247.85C1039.9 247.967 1042.01 247.772 1044 247.382L1044.66 249.647L1050.25 247.928L1049.55 245.664C1051.46 244.843 1053.29 243.828 1054.97 242.579L1056.57 244.297L1060.87 240.353L1059.27 238.595C1060.64 237.033 1061.81 235.315 1062.78 233.48L1065.01 234.378L1067.16 228.95L1064.93 228.052C1065.2 227.076 1065.44 226.1 1065.6 225.084C1065.75 224.03 1065.83 222.976 1065.87 221.921L1068.25 221.765L1067.82 215.947L1065.4 216.103C1065.01 214.033 1064.42 212.042 1063.6 210.167L1065.71 208.957L1062.82 203.88L1060.71 205.091C1059.5 203.411 1058.06 201.928 1056.5 200.561L1057.9 198.53L1053.1 195.211L1051.69 197.242C1049.9 196.265 1047.98 195.484 1045.95 194.938L1046.34 192.517L1040.56 191.618L1040.17 194.039C1038.07 193.922 1036 194.118 1034 194.469L1033.3 192.126L1027.72 193.805L1028.42 196.148C1026.51 196.968 1024.71 197.984 1023.03 199.194L1021.39 197.398L1017.1 201.342L1018.74 203.138C1017.37 204.7 1016.2 206.379 1015.22 208.254L1012.96 207.356L1010.89 212.823L1013.11 213.721C1012.84 214.736 1012.6 215.751 1012.41 216.806C1012.25 217.821 1012.17 218.836 1012.14 219.852L1009.75 220.008L1010.18 225.826L1012.57 225.67ZM1040.21 198.101L1039.12 205.247C1039.12 205.247 1039.12 205.247 1039.08 205.247C1033.93 205.247 1029.36 207.785 1026.51 211.651L1019.98 208.371C1024.36 201.771 1031.97 197.671 1040.21 198.101ZM1034.2 222.273L1028.26 228.247C1026.82 226.139 1026 223.639 1026 220.906C1026 219.578 1026.27 218.29 1026.62 217.079L1034 220.828C1034.04 221.296 1034.08 221.804 1034.2 222.273ZM1028.85 212.862C1031.15 209.933 1034.71 207.98 1038.69 207.863L1037.4 216.22C1037.05 216.337 1036.74 216.493 1036.42 216.688L1028.85 212.862ZM1042.91 233.285C1041.7 233.675 1040.41 233.909 1039.08 233.909C1036.31 233.909 1033.73 233.011 1031.62 231.566L1037.44 225.709C1037.71 225.787 1037.99 225.865 1038.26 225.943C1038.53 225.982 1038.85 225.982 1039.12 225.982L1042.91 233.285ZM1043.38 208.605C1047.01 209.894 1049.9 212.705 1051.26 216.337L1042.87 217.704C1042.63 217.43 1042.36 217.157 1042.09 216.962L1043.38 208.605ZM1061.07 214.736L1053.88 215.907C1052.28 211.221 1048.53 207.512 1043.81 205.989L1044.9 198.804C1052.87 200.912 1058.92 207.121 1061.07 214.736ZM1048.3 233.441C1052.16 230.59 1054.66 226.021 1054.66 220.867C1054.66 220.75 1054.66 220.672 1054.66 220.554L1061.85 219.383C1061.96 221.023 1061.89 222.702 1061.65 224.42C1060.64 231.02 1056.85 236.526 1051.65 239.962L1048.3 233.441ZM1047.12 231.098L1043.3 223.678C1043.57 223.249 1043.77 222.819 1043.88 222.312L1052.12 220.984C1052.08 225.084 1050.13 228.716 1047.12 231.098ZM1024.59 238.635L1029.79 233.402C1032.36 235.315 1035.57 236.487 1039.04 236.487C1040.8 236.487 1042.52 236.174 1044.08 235.628L1047.44 242.188C1043.77 243.633 1039.71 244.18 1035.53 243.555C1031.39 242.891 1027.68 241.134 1024.59 238.635ZM1016.47 217.43C1016.74 215.712 1017.21 214.111 1017.8 212.588L1024.32 215.868C1023.77 217.43 1023.46 219.11 1023.46 220.867C1023.46 224.303 1024.59 227.466 1026.47 230.044L1021.27 235.276C1017.37 230.434 1015.46 224.03 1016.47 217.43Z" fill="#634FAB"/>
<path d="M633.699 326.067C661.283 326.067 683.644 303.706 683.644 276.122C683.644 248.538 661.283 226.177 633.699 226.177C606.115 226.177 583.754 248.538 583.754 276.122C583.754 303.706 606.115 326.067 633.699 326.067Z" fill="#6438FF"/>
<path d="M665.682 296.702L660.137 286.627L654.983 296.702L649.594 264.954L644.244 296.702L638.426 275.302L633.505 296.467L628.194 259.995L622.766 296.702L617.339 283.034L612.028 296.702L606.561 273.857L601.133 296.702H665.682Z" fill="#634FAB"/>
<path d="M668.93 296.897H598.328V255.504C598.328 255.387 598.406 255.308 598.523 255.308C598.641 255.308 598.719 255.387 598.719 255.504V296.545H668.93C669.048 296.545 669.126 296.623 669.126 296.74C669.126 296.819 669.048 296.897 668.93 296.897Z" fill="#634FAB"/>
<path d="M1066.81 551.034H1016.2V529.869C1016.2 526.081 1019.28 522.996 1023.07 522.996H1059.9C1063.68 522.996 1066.77 526.081 1066.77 529.869V551.034H1066.81ZM1021.16 546.035H1061.81V529.83C1061.81 528.775 1060.95 527.916 1059.9 527.916H1023.07C1022.02 527.916 1021.16 528.775 1021.16 529.83V546.035Z" fill="white"/>
<path d="M1107.14 621.167H975.819C973.867 621.167 972.266 619.566 972.266 617.614V547.441H1110.7V617.614C1110.7 619.566 1109.1 621.167 1107.14 621.167Z" fill="#7B58F8"/>
<path d="M1085.39 598.987C1073.56 616.013 1003.94 617.263 972.266 616.911V617.145C972.266 619.371 974.062 621.207 976.327 621.207H1106.68C1108.9 621.207 1110.74 619.41 1110.74 617.145V547.441H1095.08C1096.09 560.015 1096.21 583.406 1085.39 598.987Z" fill="#E6E6E8"/>
<path d="M972.262 556.306L1041.5 575.479L1110.69 556.306V547.442H972.262V556.306Z" fill="#E6E6E8"/>
<path d="M1041.5 538.694H973.749C971.874 538.694 970.352 540.217 970.352 542.091V552.518L1041.5 572.238L1112.65 552.518V542.091C1112.65 540.217 1111.13 538.694 1109.25 538.694H1041.5Z" fill="#9579F9"/>
<path d="M973.749 538.694C971.874 538.694 970.352 540.217 970.352 542.091V544.669H1044.7C1044.7 544.669 1103.67 543.536 1106.25 542.13C1109.21 540.529 1103.39 538.655 1103.39 538.655H1041.5H973.749V538.694Z" fill="#AA94FA"/>
<path d="M1045.37 578.134H1037.63C1036.5 578.134 1035.6 577.236 1035.6 576.104V566.537C1035.6 565.404 1036.5 564.506 1037.63 564.506H1045.37C1046.5 564.506 1047.4 565.404 1047.4 566.537V576.104C1047.4 577.236 1046.5 578.134 1045.37 578.134ZM1018.38 524.831C1017.05 526.276 1020.1 526.51 1020.1 526.51C1020.1 526.51 1057.63 526.51 1061.84 526.51C1065.67 526.51 1064.3 524.675 1064.03 524.324C1062.9 523.465 1061.49 522.957 1059.93 522.957H1023.11C1021.27 522.957 1019.59 523.699 1018.38 524.831Z" fill="white"/>
<path d="M205.6 319.39L206.342 333.448L201.617 342.078C201.617 342.078 220.517 353.129 220.83 353.129C221.142 353.129 235.513 336.259 235.513 336.259L222.743 330.558L220.322 317.359L205.6 319.39Z" fill="#6438FF"/>
<path d="M189.861 420.568H257.027C257.027 420.568 269.289 501.675 271.398 520.692C273.506 539.709 270.538 611.522 270.538 611.522L281.707 620.699C283.23 621.949 282.332 624.409 280.379 624.409H259.722C258.277 624.409 257.222 623.081 257.496 621.675L259.644 611.405C259.644 611.405 250.467 550.214 244.844 524.597C242.54 514.132 228.091 478.44 228.091 478.44C228.091 478.44 214.619 524.831 209.933 541.389C207.082 551.385 178.654 608.554 178.654 608.554L189.588 620.972C190.759 622.3 189.822 624.37 188.065 624.37H178.576C175.335 624.37 167.173 621.597 162.253 619.801C160.222 619.059 159.402 616.638 160.574 614.802L165.611 606.914C165.611 606.914 185.527 533.501 185.839 516.397C186.152 499.293 189.861 420.568 189.861 420.568Z" fill="#3300E7"/>
<path d="M197.159 298.068C200.634 292.094 214.575 292.367 216.645 290.219C218.714 288.071 218.48 287.017 218.48 287.017C218.48 287.017 224.298 287.329 225.353 292.367C226.407 297.443 224.884 301.466 224.884 301.466C224.884 301.466 230.546 320.092 223.635 326.223C216.723 332.354 204.422 319.858 204.422 319.858C204.422 319.858 200.127 319.468 198.955 315.328C198.643 314.118 199.306 312.868 200.478 312.439C200.478 312.4 191.223 308.26 197.159 298.068Z" fill="#6438FF"/>
<path d="M225.353 292.367C224.298 287.29 218.48 287.017 218.48 287.017C218.48 287.017 218.714 288.071 216.645 290.219C214.575 292.367 200.634 292.094 197.159 298.068C191.223 308.299 200.478 312.4 200.478 312.4C200.478 312.4 201.337 312.868 202.587 313.61C202.821 313.337 202.274 312.439 201.415 309.393C200.908 307.635 204.891 305.761 208.796 305.019C217.543 303.34 223.635 297.522 223.635 297.522L224.884 301.427C224.884 301.427 226.407 297.404 225.353 292.367Z" fill="#3300E7"/>
<path d="M174.672 344.538L206.263 331.534L217.549 345.904L222.742 330.597C222.742 330.597 254.724 333.877 261.597 338.251C268.47 342.624 264.448 418.459 259.801 422.677C255.154 426.894 187.988 423.731 187.988 423.731C187.988 423.731 181.662 422.052 183.771 414.632C185.879 407.252 175.726 357.737 174.672 344.538Z" fill="#5F3DD9"/>
<path d="M260.853 342.819L261.595 338.212C261.595 338.212 281.549 363.086 276.902 397.489C274.286 416.936 247.185 418.342 219.265 416.507C216.102 416.311 213.446 420.802 202.356 415.882C200.091 414.867 196.889 414.476 194.702 414.32C193.179 414.203 192.008 412.953 191.969 411.43C191.93 409.673 192.164 407.408 193.297 405.729C195.405 402.566 203.645 400.887 214.188 404.87C224.732 408.892 253.043 390.734 253.043 390.734C253.043 390.734 242.031 363.516 260.853 342.819Z" fill="#7B58F8"/>
<path d="M277.488 383.47C268.546 381.869 257.026 382.572 250.934 383.119C251.871 387.805 253.043 390.773 253.043 390.773C253.043 390.773 224.732 408.931 214.188 404.909C203.645 400.887 195.405 402.605 193.296 405.768C192.203 407.447 191.969 409.673 191.969 411.469C192.008 412.992 193.179 414.242 194.702 414.359C196.889 414.515 200.091 414.945 202.356 415.921C213.407 420.841 216.102 416.35 219.265 416.546C247.146 418.42 274.286 416.975 276.902 397.528C277.527 392.647 277.683 387.922 277.488 383.47Z" fill="#6438FF"/>
<path d="M174.672 344.538C174.672 344.538 159.872 355.081 164.753 379.605C169.595 404.089 203.022 412.758 208.177 411.079C213.331 409.4 219.97 387.571 219.97 361.642C219.97 350.239 219.97 348.326 219.97 348.326C219.97 348.326 228.327 343.6 228.092 338.251C227.858 332.901 226.296 331.378 224.929 330.831C223.562 330.284 218.564 330.597 218.564 330.597C218.564 330.597 220.399 327.473 219.97 326.34C219.54 325.247 218.994 324.427 218.994 324.427C218.994 324.427 213.527 330.597 212.355 333.526C211.184 336.454 200.172 377.691 200.172 377.691C200.172 377.691 193.416 348.052 174.672 344.538Z" fill="#7B58F8"/>
<path d="M224.928 330.831C223.561 330.284 218.563 330.597 218.563 330.597C218.563 330.597 220.398 327.473 219.968 326.34C219.539 325.247 218.992 324.427 218.992 324.427C218.992 324.427 213.525 330.597 212.354 333.526C211.182 336.454 200.17 377.691 200.17 377.691C200.17 377.691 199.35 374.059 197.476 369.178C191.071 369.959 175.295 373.669 170.414 391.983C181.543 406.979 204.075 412.367 208.214 411.001C213.369 409.322 220.007 387.493 220.007 361.563C220.007 350.161 220.007 348.247 220.007 348.247C220.007 348.247 228.364 343.522 228.13 338.173C227.896 332.901 226.295 331.339 224.928 330.831Z" fill="#6438FF"/>
<path d="M314.61 335.386L315.312 348.704L310.836 356.88C310.836 356.88 328.742 367.35 329.038 367.35C329.334 367.35 342.948 351.368 342.948 351.368L330.851 345.966L328.557 333.462L314.61 335.386Z" fill="#6438FF"/>
<path d="M299.699 431.241H363.331C363.331 431.241 374.948 508.082 376.946 526.099C378.943 544.116 376.132 612.151 376.132 612.151L386.713 620.845C388.155 622.029 387.305 624.359 385.455 624.359H365.884C364.515 624.359 363.516 623.102 363.775 621.77L365.81 612.04C365.81 612.04 357.116 554.067 351.789 529.798C349.606 519.883 335.917 486.069 335.917 486.069C335.917 486.069 323.154 530.02 318.714 545.706C316.014 555.177 289.081 609.339 289.081 609.339L299.44 621.104C300.549 622.362 299.662 624.322 297.997 624.322H289.007C285.936 624.322 278.204 621.696 273.543 619.994C271.619 619.291 270.842 616.997 271.952 615.258L276.724 607.785C276.724 607.785 295.592 538.233 295.888 522.029C296.184 505.825 299.699 431.241 299.699 431.241Z" fill="#5F3DD9"/>
<path d="M306.605 315.185C309.898 309.525 323.105 309.784 325.066 307.749C331.688 307.749 331.688 307.75 331.688 307.75C331.688 307.75 332.317 305.012 333.316 309.784C334.315 314.594 332.872 318.404 332.872 318.404C332.872 318.404 338.236 336.051 331.688 341.859C325.14 347.668 313.486 335.829 313.486 335.829C313.486 335.829 309.417 335.459 308.307 331.538C308.011 330.391 308.64 329.207 309.75 328.8C309.75 328.763 300.982 324.841 306.605 315.185Z" fill="#6438FF"/>
<path d="M334.391 310.163C334.391 310.163 328.102 306.093 326.141 308.128C324.18 310.163 319.283 301.393 306.497 315.046C295.259 327.046 304.246 355.402 304.246 355.402C304.246 355.402 318.705 348.674 318.705 344.411C318.927 344.152 317.847 333.174 317.033 330.288C316.552 328.623 315.005 322.852 318.705 322.149C329.35 325.937 332.763 315.046 332.763 315.046L333.947 318.746C333.947 318.746 335.39 314.935 334.391 310.163Z" fill="#3300E7"/>
<path d="M285.309 359.211L315.238 346.891L325.93 360.505L330.85 346.003C330.85 346.003 344.986 347.942 351.497 352.086C358.008 356.229 374 523.968 383 531.144C378.598 535.139 285.309 566.968 285.309 566.968C285.309 566.968 291.931 432.647 293.929 425.618C295.926 418.626 286.307 371.715 285.309 359.211Z" fill="#3300E7"/>
<path d="M348.264 356.333L348.967 351.968C348.967 351.968 367.872 375.534 363.47 408.127C360.991 426.551 335.316 427.883 308.864 426.144C305.867 425.959 303.351 430.214 292.845 425.552C290.699 424.59 287.665 424.221 285.593 424.073C284.151 423.962 283.041 422.778 283.004 421.335C282.967 419.67 283.189 417.524 284.262 415.933C286.259 412.937 294.065 411.346 304.054 415.12C320.507 421.335 348.967 400.968 348.967 400.968C348.967 400.968 340.865 378.468 348.264 356.333Z" fill="#7B58F8"/>
<path d="M364.775 395.653C356.303 394.136 353.271 395.135 347.5 395.653C348.388 400.092 340.5 405.968 340.5 405.968C340.5 405.968 314.793 419.774 304.804 415.963C294.816 412.153 287.01 413.781 285.012 416.777C283.976 418.368 283.754 420.477 283.754 422.179C283.791 423.622 284.901 424.805 286.344 424.916C288.415 425.064 291.449 425.471 293.595 426.396C304.065 431.058 306.617 426.803 309.614 426.988C336.029 428.764 361.741 427.395 364.22 408.971C364.812 404.347 364.96 399.87 364.775 395.653Z" fill="#6438FF"/>
<path d="M298.695 350.911C298.695 350.911 284.643 337.39 279.963 360.612C275.263 383.786 298.59 420.901 303.709 421.314C308.828 421.726 322.597 405.063 332.058 382.393C336.219 372.424 336.917 370.751 336.917 370.751C336.917 370.751 345.947 369.669 347.695 364.906C349.442 360.143 348.632 358.241 347.636 357.265C346.641 356.288 342.157 354.737 342.157 354.737C342.157 354.737 344.901 352.676 344.939 351.529C344.962 350.416 344.783 349.5 344.783 349.5C344.783 349.5 337.752 352.899 335.66 355.032C333.567 357.166 308.892 389.201 308.892 389.201C308.892 389.201 313.8 360.823 298.695 350.911Z" fill="#8D72F1"/>
<path d="M347.636 357.264C346.64 356.288 342.156 354.737 342.156 354.737C342.156 354.737 344.901 352.675 344.938 351.528C344.962 350.416 344.783 349.499 344.783 349.499C344.783 349.499 337.752 352.899 335.659 355.032C333.566 357.165 308.892 389.201 308.892 389.201C308.892 389.201 309.5 385.727 309.642 380.775C303.758 379.121 294.703 372.434 283.753 386.666C288.012 403.837 299.654 420.944 303.771 421.259C308.891 421.672 322.66 405.009 332.121 382.339C336.281 372.369 336.979 370.696 336.979 370.696C336.979 370.696 346.01 369.614 347.757 364.851C349.476 360.157 348.646 358.207 347.636 357.264Z" fill="#6438FF"/>
</svg>
