<svg width="129" height="129" viewBox="0 0 129 129" fill="none" xmlns="http://www.w3.org/2000/svg">
<path d="M32.0469 64.0971C32.0469 81.7678 46.4246 96.1456 64.0953 96.1456C81.7661 96.1456 96.1438 81.7678 96.1438 64.0971C96.1438 46.4264 81.7661 32.0486 64.0953 32.0486C46.4246 32.0486 32.0469 46.4264 32.0469 64.0971ZM49.0426 40.4754L52.2875 46.9652C52.4818 47.3518 52.7963 47.6682 53.1828 47.8605L59.26 50.8991L54.9495 58.088H48.0711C47.2078 58.088 46.4447 58.6388 46.1702 59.4581L44.6239 64.0971H36.0529C36.0529 54.1761 41.2468 45.4609 49.0426 40.4754ZM64.0953 86.1304V92.1395C54.2685 92.1395 45.6214 87.0498 40.6138 79.3782L49.7136 76.3456L56.8844 81.7237C57.6155 82.2706 58.6251 82.2566 59.3382 81.6857L67.9532 74.7933L72.1075 78.9476V82.563L65.6116 84.1875C64.7203 84.4098 64.0953 85.211 64.0953 86.1304ZM92.1378 64.0971C92.1378 68.5158 91.0822 72.6841 89.2534 76.4077L84.7005 71.8548L87.7952 67.2118C88.1077 66.7431 88.2098 66.1622 88.0716 65.6154L86.0686 57.6033C85.9344 57.0624 85.5778 56.6018 85.0891 56.3333C84.5984 56.0629 84.0195 56.0129 83.4907 56.1891L78.8517 57.7355L74.2808 51.6423L75.6749 46.0698H85.5458C89.652 50.9492 92.1378 57.2347 92.1378 64.0971ZM74.1105 42.0638C73.1911 42.0638 72.3899 42.6887 72.1676 43.5801L70.1645 51.5922C70.0183 52.1771 70.1445 52.798 70.505 53.2807L76.5141 61.2929C77.0309 61.9819 77.9323 62.2643 78.7495 61.9919L82.7075 60.6719L83.9694 65.7256L80.4561 70.9975C79.9253 71.7907 80.0315 72.8503 80.7065 73.5254L87.1723 79.9911C82.8297 86.2746 75.9913 90.6833 68.1014 91.819V87.6928L74.5972 86.0683C75.4886 85.848 76.1135 85.0468 76.1135 84.1274V78.1183C76.1135 77.5875 75.9032 77.0767 75.5266 76.7022L69.5176 70.6931C68.7965 69.97 67.6467 69.9059 66.8495 70.5448L58.0462 77.5875L51.276 72.5098C50.7512 72.1132 50.0661 72.005 49.4392 72.2114L38.6489 75.8088C37.5372 73.4032 36.764 70.8173 36.3714 68.1032H46.0681C46.9314 68.1032 47.6945 67.5523 47.969 66.7331L49.5153 62.0941H56.0832C56.7863 62.0941 57.4393 61.7255 57.7998 61.1226L63.8089 51.1074C64.0974 50.6287 64.1715 50.0518 64.0152 49.517C63.859 48.9822 63.4864 48.5356 62.9877 48.2852L55.5725 44.5776L52.5659 38.5625C56.0872 36.9661 59.9831 36.0547 64.0953 36.0547C70.6192 36.0547 76.6163 38.3141 81.3855 42.0638H74.1105ZM118.177 58.088C115.569 58.088 113.366 59.7685 112.537 62.0941H100.15V66.1001H112.537C113.366 68.4256 115.569 70.1062 118.177 70.1062C121.49 70.1062 124.186 67.4101 124.186 64.0971C124.186 60.7841 121.49 58.088 118.177 58.088ZM118.177 66.1001C117.073 66.1001 116.174 65.2008 116.174 64.0971C116.174 62.9934 117.073 62.0941 118.177 62.0941C119.281 62.0941 120.18 62.9934 120.18 64.0971C120.18 65.2008 119.281 66.1001 118.177 66.1001ZM118.177 98.1486C118.177 94.8356 115.481 92.1395 112.168 92.1395C109.56 92.1395 107.357 93.82 106.528 96.1456H103.509L100.006 87.3883C99.7012 86.6292 98.9661 86.1304 98.1469 86.1304H92.1378V90.1365H96.7908L100.294 98.8937C100.599 99.6529 101.334 100.152 102.153 100.152H106.528C107.357 102.477 109.56 104.158 112.168 104.158C115.481 104.158 118.177 101.462 118.177 98.1486ZM110.165 98.1486C110.165 97.0449 111.064 96.1456 112.168 96.1456C113.272 96.1456 114.171 97.0449 114.171 98.1486C114.171 99.2523 113.272 100.152 112.168 100.152C111.064 100.152 110.165 99.2523 110.165 98.1486ZM96.1438 122.185C99.4568 122.185 102.153 119.489 102.153 116.176C102.153 112.863 99.4568 110.167 96.1438 110.167C93.5359 110.167 91.3325 111.847 90.5033 114.173H85.6359L82.0445 101.604C81.8001 100.745 81.0129 100.152 80.1196 100.152H70.1044V104.158H78.6093L82.2007 116.727C82.4451 117.586 83.2323 118.179 84.1256 118.179H90.5033C91.3325 120.504 93.5359 122.185 96.1438 122.185ZM96.1438 114.173C97.2475 114.173 98.1469 115.072 98.1469 116.176C98.1469 117.28 97.2475 118.179 96.1438 118.179C95.0402 118.179 94.1408 117.28 94.1408 116.176C94.1408 115.072 95.0402 114.173 96.1438 114.173ZM79.9093 26.9349L85.3635 16.0244H90.4793C91.3225 18.408 93.598 20.0304 96.1418 20.0304C96.4403 20.0304 96.7427 20.0084 97.0472 19.9623C98.6336 19.72 100.032 18.8767 100.983 17.5827C101.935 16.2888 102.325 14.7024 102.085 13.118C101.586 9.84303 98.5214 7.59162 95.2405 8.07836C93.6541 8.32072 92.2559 9.164 91.3045 10.458C90.95 10.9407 90.7016 11.4715 90.5053 12.0183H84.1256C83.3665 12.0183 82.6734 12.447 82.3329 13.126L76.8787 24.0365H70.1044V28.0426H78.1166C78.8757 28.0426 79.5688 27.6139 79.9093 26.9349ZM94.5294 12.8335C94.8479 12.4029 95.3126 12.1205 95.8414 12.0403C95.9435 12.0243 96.0437 12.0183 96.1438 12.0183C97.1173 12.0183 97.9746 12.7294 98.1248 13.7209C98.2049 14.2497 98.0747 14.7785 97.7583 15.2091C97.4398 15.6398 96.9751 15.9222 96.4463 16.0023C95.3687 16.1726 94.3311 15.4155 94.1648 14.3218C94.0827 13.793 94.2129 13.2642 94.5294 12.8335ZM108.531 34.0516C109.36 36.3772 111.563 38.0577 114.171 38.0577C117.484 38.0577 120.18 35.3616 120.18 32.0486C120.18 28.7356 117.484 26.0395 114.171 26.0395C111.563 26.0395 109.36 27.7201 108.531 30.0456H100.15C99.4809 30.0456 98.8559 30.3801 98.4834 30.9369L95.0722 36.0547H90.1347V40.0607H96.1438C96.8128 40.0607 97.4378 39.7262 97.8103 39.1694L101.222 34.0516H108.531ZM114.171 30.0456C115.275 30.0456 116.174 30.9449 116.174 32.0486C116.174 33.1523 115.275 34.0516 114.171 34.0516C113.067 34.0516 112.168 33.1523 112.168 32.0486C112.168 30.9449 113.067 30.0456 114.171 30.0456Z" fill="url(#paint0_linear_707_5108)"/>
<path d="M6.01084 54.0816C4.90517 54.0816 4.00781 54.979 4.00781 56.0846V72.1089C4.00781 73.2145 4.90517 74.1119 6.01084 74.1119H10.9463C11.4471 76.7719 12.1561 79.4119 13.0655 81.9978L8.78504 84.4676C7.82559 85.0204 7.49909 86.2463 8.05193 87.2037L16.064 101.081C16.6169 102.038 17.8367 102.367 18.8002 101.814L23.0887 99.3381C24.8634 101.399 26.7943 103.332 28.8554 105.105L26.3796 109.393C25.8268 110.353 26.1553 111.577 27.1128 112.129L40.9897 120.142C41.9452 120.692 43.171 120.364 43.7259 119.408L46.1956 115.128C48.7795 116.037 51.4195 116.746 54.0816 117.247V122.185C54.0816 123.29 54.9789 124.188 56.0846 124.188H64.0967C65.2024 124.188 66.0997 123.29 66.0997 122.185V102.154C66.0997 101.049 65.2024 100.151 64.0967 100.151C44.2166 100.151 28.0422 83.9768 28.0422 64.0968C28.0422 44.2167 44.2166 28.0422 64.0967 28.0422C65.2024 28.0422 66.0997 27.1449 66.0997 26.0392V6.00889C66.0997 4.90322 65.2024 4.00586 64.0967 4.00586H56.0846C54.9789 4.00586 54.0816 4.90322 54.0816 6.00889V10.9444C51.4215 11.4451 48.7815 12.1542 46.1956 13.0636L43.7279 8.78309C43.173 7.82363 41.9472 7.49514 40.9918 8.04998L27.1148 16.0621C26.1553 16.6149 25.8288 17.8408 26.3817 18.7982L28.8574 23.0867C26.7963 24.8614 24.8634 26.7923 23.0907 28.8534L18.8002 26.3797C17.8367 25.8269 16.6169 26.1554 16.064 27.1128L8.05193 40.9898C7.49909 41.9473 7.82759 43.1731 8.78504 43.7259L13.0655 46.1957C12.1561 48.7816 11.4471 51.4216 10.9463 54.0816H6.01084ZM14.6139 56.3911C15.1567 52.8858 16.0921 49.3985 17.3981 46.0314C17.7546 45.11 17.388 44.0665 16.5308 43.5717L12.5247 41.2582L18.5338 30.8505L22.5479 33.168C23.4031 33.6607 24.4888 33.4564 25.1077 32.6912C27.3551 29.905 29.907 27.3532 32.6932 25.1058C33.4604 24.4868 33.6627 23.3992 33.1699 22.5459L30.8524 18.5318L41.2602 12.5227L43.5737 16.5288C44.0684 17.3841 45.11 17.7486 46.0314 17.3961C49.4005 16.0901 52.8857 15.1547 56.391 14.6119C57.3685 14.4617 58.0896 13.6204 58.0896 12.6329V8.01192H62.0957V24.0862C40.9337 25.1318 24.0381 42.6784 24.0381 64.0968C24.0381 85.5152 40.9337 103.062 62.0957 104.107V120.182H58.0896V115.561C58.0896 114.573 57.3685 113.732 56.393 113.582C52.8877 113.039 49.4005 112.103 46.0334 110.797C45.112 110.443 44.0704 110.807 43.5737 111.665L41.2602 115.671L30.8524 109.662L33.1699 105.648C33.6627 104.792 33.4604 103.707 32.6932 103.088C29.907 100.84 27.3551 98.2885 25.1077 95.5023C24.4868 94.7331 23.4011 94.5308 22.5479 95.0255L18.5338 97.343L12.5247 86.9353L16.5308 84.6218C17.386 84.1271 17.7546 83.0835 17.3981 82.1641C16.0921 78.795 15.1567 75.3097 14.6139 71.8044C14.4636 70.8269 13.6224 70.1058 12.6349 70.1058H8.01387V58.0877H12.6349C13.6224 58.0877 14.4636 57.3666 14.6139 56.3911Z" fill="url(#paint1_linear_707_5108)"/>
<defs>
<linearGradient id="paint0_linear_707_5108" x1="78.1166" y1="8.01221" x2="78.1166" y2="122.185" gradientUnits="userSpaceOnUse">
<stop stop-color="#9590BC"/>
<stop offset="1" stop-color="#737279"/>
</linearGradient>
<linearGradient id="paint1_linear_707_5108" x1="35.0538" y1="4.00586" x2="35.0538" y2="124.188" gradientUnits="userSpaceOnUse">
<stop stop-color="#9590BC"/>
<stop offset="1" stop-color="#737279"/>
</linearGradient>
</defs>
</svg>
