<svg width="83" height="111" viewBox="0 0 83 111" fill="none" xmlns="http://www.w3.org/2000/svg">
<path d="M69.548 68.2606C73.6063 64.5896 76.839 60.1711 79.0501 55.2734C81.2612 50.3757 82.4044 45.101 82.4104 39.7695C82.4104 38.8745 82.3599 38.0298 82.2854 37.2469C80.9519 16.6489 62.9331 0.530762 41.25 0.530762C40.582 0.53534 39.9404 0.553653 39.2965 0.578834C18.6754 1.42583 1.49283 17.4409 0.1064 37.0775C0.0796499 37.2195 0.0675772 37.3636 0.0703569 37.5078C-0.277219 43.1648 0.665945 48.8264 2.83493 54.1028C5.00392 59.3793 8.34722 64.1453 12.6347 68.0729C14.3903 69.6558 15.8612 71.5026 16.9886 73.5395C18.0002 75.3891 18.6706 77.312 19.0094 79.2739C18.4393 79.3426 17.9147 79.6059 17.533 80.0151C17.1512 80.4243 16.9382 80.9515 16.9334 81.4989V91.64C16.9359 93.5396 17.7291 95.3606 19.139 96.7038C20.5489 98.047 22.4604 98.8027 24.4542 98.8051H26.8571C27.8759 105.361 33.8012 110.411 40.9616 110.411C48.1221 110.411 54.045 105.361 55.0614 98.8051H57.4691C59.4629 98.8027 61.3744 98.047 62.7843 96.7038C64.1942 95.3606 64.9873 93.5396 64.9899 91.64V81.4989C64.9873 81.0228 64.8273 80.5596 64.5327 80.175C64.2381 79.7904 63.8239 79.5039 63.3488 79.3563C63.6858 77.3258 64.3675 75.3612 65.3671 73.5395C66.4491 71.5743 67.8614 69.7911 69.548 68.2606ZM40.9592 105.833C36.4179 105.833 32.6166 102.772 31.6939 98.8166H50.1933C49.7139 100.809 48.5398 102.587 46.8627 103.861C45.1855 105.136 43.1045 105.831 40.9592 105.833ZM60.1842 91.64C60.1842 93.0684 58.966 94.2268 57.4691 94.2268H24.4542C22.9573 94.2268 21.739 93.0684 21.739 91.64V83.7881H60.1842V91.64ZM61.1045 71.4243C59.7726 73.8555 58.8992 76.4907 58.5239 79.2098H23.8511C23.4659 76.4876 22.5845 73.8505 21.2465 71.4174C19.8764 68.9386 18.089 66.6906 15.9554 64.7628C8.34328 57.8014 4.30173 48.0243 4.86399 37.7619C4.87693 37.6861 4.88575 37.6097 4.89042 37.533C6.04378 20.1238 21.2465 5.90346 39.5223 5.1549C40.075 5.13201 40.6997 5.15719 41.2476 5.10912C60.3981 5.10912 76.312 19.3432 77.4942 37.5925C77.5615 38.3022 77.6047 39.0118 77.6047 39.7672C77.6003 44.4771 76.591 49.1369 74.638 53.4637C72.6851 57.7905 69.8293 61.6938 66.2442 64.9367C64.1706 66.8174 62.4344 69.0089 61.1045 71.4243Z" fill="url(#paint0_linear_707_5115)"/>
<path d="M27.4865 40.82C27.7091 41.0333 27.9738 41.2026 28.2653 41.3181C28.5569 41.4336 28.8695 41.4931 29.1853 41.4931C29.501 41.4931 29.8136 41.4336 30.1052 41.3181C30.3967 41.2026 30.6614 41.0333 30.8841 40.82C31.3345 40.3907 31.5876 39.8085 31.5876 39.2015C31.5876 38.5945 31.3345 38.0124 30.8841 37.5831L27.8685 34.7101L30.8841 31.8372C31.1135 31.6261 31.2966 31.3735 31.4225 31.0942C31.5485 30.8149 31.6147 30.5145 31.6175 30.2105C31.6203 29.9066 31.5595 29.6052 31.4387 29.3238C31.3179 29.0425 31.1394 28.7869 30.9138 28.572C30.6882 28.357 30.42 28.187 30.1247 28.0719C29.8294 27.9568 29.513 27.8989 29.1939 27.9016C28.8749 27.9042 28.5596 27.9674 28.2664 28.0873C27.9733 28.2073 27.7081 28.3817 27.4865 28.6003L24.4709 31.4733L21.4554 28.6003C21.2337 28.3817 20.9686 28.2073 20.6754 28.0873C20.3823 27.9674 20.067 27.9042 19.7479 27.9016C19.4289 27.8989 19.1125 27.9568 18.8172 28.0719C18.5219 28.187 18.2536 28.357 18.028 28.572C17.8024 28.7869 17.624 29.0425 17.5031 29.3238C17.3823 29.6052 17.3215 29.9066 17.3243 30.2105C17.3271 30.5145 17.3934 30.8149 17.5193 31.0942C17.6452 31.3735 17.8283 31.6261 18.0578 31.8372L21.0733 34.7101L18.0578 37.5831C17.8283 37.7942 17.6452 38.0468 17.5193 38.3261C17.3934 38.6054 17.3271 38.9058 17.3243 39.2098C17.3215 39.5137 17.3823 39.8151 17.5031 40.0965C17.624 40.3778 17.8024 40.6334 18.028 40.8483C18.2536 41.0633 18.5219 41.2333 18.8172 41.3484C19.1125 41.4635 19.4289 41.5214 19.7479 41.5187C20.067 41.5161 20.3823 41.4529 20.6754 41.333C20.9686 41.213 21.2337 41.0386 21.4554 40.82L24.4709 37.947L27.4865 40.82ZM64.3554 48.2461C63.9048 47.8169 63.2938 47.5758 62.6566 47.5758C62.0195 47.5758 61.4084 47.8169 60.9578 48.2461L57.9423 51.1167L54.9267 48.2461C54.7051 48.0274 54.4399 47.853 54.1468 47.733C53.8536 47.6131 53.5383 47.5499 53.2193 47.5473C52.9002 47.5446 52.5838 47.6026 52.2885 47.7177C51.9932 47.8328 51.725 48.0027 51.4993 48.2177C51.2737 48.4326 51.0953 48.6882 50.9745 48.9695C50.8537 49.2509 50.7929 49.5523 50.7957 49.8563C50.7984 50.1602 50.8647 50.4606 50.9907 50.7399C51.1166 51.0192 51.2996 51.2718 51.5291 51.4829L54.5423 54.3536L51.5291 57.2265C51.2996 57.4377 51.1166 57.6903 50.9907 57.9695C50.8647 58.2488 50.7984 58.5492 50.7957 58.8532C50.7929 59.1571 50.8537 59.4586 50.9745 59.7399C51.0953 60.0212 51.2737 60.2768 51.4993 60.4918C51.725 60.7067 51.9932 60.8767 52.2885 60.9918C52.5838 61.1069 52.9002 61.1648 53.2193 61.1622C53.5383 61.1595 53.8536 61.0964 54.1468 60.9764C54.4399 60.8564 54.7051 60.682 54.9267 60.4634L57.9423 57.5905L60.9578 60.4634C61.1804 60.6767 61.4451 60.846 61.7367 60.9615C62.0282 61.077 62.3409 61.1365 62.6566 61.1365C62.9724 61.1365 63.285 61.077 63.5765 60.9615C63.8681 60.846 64.1328 60.6767 64.3554 60.4634C64.8059 60.0341 65.0589 59.452 65.0589 58.8449C65.0589 58.2379 64.8059 57.6558 64.3554 57.2265L61.3399 54.3536L64.3554 51.4829C64.8059 51.0537 65.0589 50.4715 65.0589 49.8645C65.0589 49.2575 64.8059 48.6753 64.3554 48.2461ZM57.2527 18.1708C57.0304 17.9563 56.7657 17.7858 56.4739 17.6693C56.1821 17.5528 55.8689 17.4926 55.5525 17.4922C55.236 17.4918 54.9227 17.5511 54.6305 17.6668C54.3383 17.7825 54.0731 17.9523 53.8503 18.1663L53.8479 18.1686L46.7427 24.9605C46.5135 25.172 46.3309 25.4249 46.2054 25.7043C46.0799 25.9838 46.0141 26.2842 46.0118 26.5882C46.0094 26.8921 46.0707 27.1935 46.1919 27.4746C46.3132 27.7558 46.4919 28.0111 46.7179 28.2258C46.9438 28.4404 47.2123 28.61 47.5078 28.7247C47.8032 28.8394 48.1197 28.8969 48.4387 28.8938C48.7578 28.8908 49.0729 28.8272 49.3659 28.7069C49.6589 28.5865 49.9238 28.4118 50.1451 28.1929L53.1486 25.3222V31.4435C53.1448 34.7619 51.7593 37.9434 49.2961 40.2897C46.8328 42.636 43.4932 43.9554 40.01 43.9584C30.1176 43.9584 22.0681 51.6272 22.0681 61.0517C22.0681 61.6588 22.3212 62.2411 22.7719 62.6704C23.2225 63.0997 23.8336 63.3409 24.4709 63.3409C25.1082 63.3409 25.7194 63.0997 26.17 62.6704C26.6206 62.2411 26.8737 61.6588 26.8737 61.0517C26.8782 57.7338 28.2636 54.5531 30.7262 52.207C33.1887 49.8609 36.5274 48.541 40.01 48.5368C49.9048 48.5368 57.9543 40.868 57.9543 31.4435V25.3222L60.9554 28.1906C61.1782 28.4034 61.4428 28.5724 61.7341 28.6878C62.0254 28.8032 62.3377 28.8628 62.6532 28.8632C62.9687 28.8637 63.2812 28.8049 63.5729 28.6903C63.8645 28.5756 64.1296 28.4074 64.353 28.1952C64.5764 27.9829 64.7538 27.7308 64.8749 27.4533C64.996 27.1758 65.0586 26.8782 65.0591 26.5777C65.0595 26.2771 64.9978 25.9794 64.8775 25.7015C64.7572 25.4237 64.5806 25.1711 64.3578 24.9583L57.2527 18.1686V18.1708Z" fill="url(#paint1_linear_707_5115)"/>
<path d="M38.9093 53.6899C34.565 53.6899 31.028 57.055 31.028 61.1961C31.028 65.3372 34.565 68.7046 38.9093 68.7046C43.2536 68.7046 46.7905 65.3372 46.7905 61.1961C46.7905 57.055 43.2536 53.6899 38.9093 53.6899ZM38.9093 64.1239C37.2153 64.1239 35.8337 62.8099 35.8337 61.1961C35.8337 59.5822 37.2153 58.2659 38.9093 58.2659C40.6033 58.2659 41.9849 59.5822 41.9849 61.1961C41.9849 62.8099 40.6057 64.1239 38.9093 64.1239ZM36.2445 27.2934C40.5889 27.2934 44.1258 23.926 44.1258 19.7849C44.1258 15.6437 40.5889 12.2764 36.2445 12.2764C31.9002 12.2764 28.3633 15.646 28.3633 19.7849C28.3633 23.9237 31.9002 27.2934 36.2445 27.2934ZM36.2445 16.8547C37.0603 16.8547 37.8425 17.1634 38.4193 17.7129C38.9961 18.2625 39.3202 19.0077 39.3202 19.7849C39.3202 20.562 38.9961 21.3073 38.4193 21.8568C37.8425 22.4063 37.0603 22.715 36.2445 22.715C34.5506 22.715 33.1689 21.401 33.1689 19.7849C33.1689 18.171 34.5506 16.8547 36.2445 16.8547Z" fill="url(#paint2_linear_707_5115)"/>
<defs>
<linearGradient id="paint0_linear_707_5115" x1="41.2052" y1="0.530762" x2="41.2052" y2="110.411" gradientUnits="userSpaceOnUse">
<stop stop-color="#9590BC"/>
<stop offset="1" stop-color="#737279"/>
</linearGradient>
<linearGradient id="paint1_linear_707_5115" x1="41.1916" y1="17.4922" x2="41.1916" y2="63.3409" gradientUnits="userSpaceOnUse">
<stop stop-color="#9590BC"/>
<stop offset="1" stop-color="#737279"/>
</linearGradient>
<linearGradient id="paint2_linear_707_5115" x1="37.5769" y1="12.2764" x2="37.5769" y2="68.7046" gradientUnits="userSpaceOnUse">
<stop stop-color="#9590BC"/>
<stop offset="1" stop-color="#737279"/>
</linearGradient>
</defs>
</svg>
