<svg width="140" height="141" viewBox="0 0 140 141" fill="none" xmlns="http://www.w3.org/2000/svg">
<path d="M50.3125 113.79H48.125V98.5867C48.1256 98.2029 48.0253 97.8257 47.8341 97.4929L32.7141 71.3129C32.6207 71.1528 32.5184 70.9979 32.4078 70.8492C31.708 69.8168 30.7974 68.9444 29.736 68.2895C28.6747 67.6346 27.4866 67.212 26.25 67.0495V48.1648C26.25 45.8442 25.3281 43.6186 23.6872 41.9776C22.0462 40.3367 19.8206 39.4148 17.5 39.4148C15.1794 39.4148 12.9538 40.3367 11.3128 41.9776C9.67187 43.6186 8.75 45.8442 8.75 48.1648V100.665C8.74977 101.162 8.91872 101.644 9.22906 102.032L17.5 112.37V113.79H15.3125C14.7323 113.79 14.1759 114.02 13.7657 114.43C13.3555 114.841 13.125 115.397 13.125 115.977V133.477C13.125 134.057 13.3555 134.614 13.7657 135.024C14.1759 135.434 14.7323 135.665 15.3125 135.665H50.3125C50.8927 135.665 51.4491 135.434 51.8593 135.024C52.2695 134.614 52.5 134.057 52.5 133.477V115.977C52.5 115.397 52.2695 114.841 51.8593 114.43C51.4491 114.02 50.8927 113.79 50.3125 113.79ZM21.3959 110.235L13.125 99.897V48.1648C13.125 47.0045 13.5859 45.8917 14.4064 45.0712C15.2269 44.2507 16.3397 43.7898 17.5 43.7898C18.6603 43.7898 19.7731 44.2507 20.5936 45.0712C21.4141 45.8917 21.875 47.0045 21.875 48.1648V67.6445C21.5001 67.7888 21.1348 67.9568 20.7812 68.1476C18.7765 69.313 17.3141 71.2241 16.7133 73.4638C16.1125 75.7035 16.422 78.09 17.5744 80.1023L30.0869 101.759L33.8756 99.571L21.3631 77.9148C20.7872 76.9113 20.6307 75.7209 20.9277 74.6026C21.2247 73.4843 21.9511 72.5285 22.9491 71.9429C23.3879 71.6869 23.871 71.5154 24.3731 71.4376C24.4475 71.4267 25.06 71.3501 25.1562 71.3501C25.9333 71.3496 26.6958 71.5614 27.3612 71.9626C27.9387 72.2896 28.4287 72.7511 28.7897 73.3079C28.8313 73.3692 28.9034 73.4807 28.9494 73.5376L43.75 99.1707V113.79H21.875V111.602C21.8752 111.105 21.7063 110.623 21.3959 110.235ZM48.125 131.29H17.5V118.165H48.125V131.29Z" fill="url(#paint0_linear_727_5338)"/>
<path d="M39.375 122.54H43.75V126.915H39.375V122.54ZM122.5 39.4148C120.179 39.4148 117.954 40.3367 116.313 41.9776C114.672 43.6186 113.75 45.8442 113.75 48.1648V67.0495C112.597 67.1896 111.486 67.5665 110.486 68.1564C109.325 68.8142 108.334 69.7359 107.594 70.847C107.474 71.0088 107.363 71.1775 107.262 71.3523L92.1681 97.4951C91.9769 97.8279 91.8765 98.2051 91.8772 98.5889V113.79H89.6875C89.1073 113.79 88.5509 114.02 88.1407 114.43C87.7305 114.841 87.5 115.397 87.5 115.977V133.477C87.5 134.057 87.7305 134.614 88.1407 135.024C88.5509 135.434 89.1073 135.665 89.6875 135.665H124.688C125.268 135.665 125.824 135.434 126.234 135.024C126.645 134.614 126.875 134.057 126.875 133.477V115.977C126.875 115.397 126.645 114.841 126.234 114.43C125.824 114.02 125.268 113.79 124.688 113.79H122.5V112.37L130.771 102.032C131.081 101.644 131.25 101.162 131.25 100.665V48.1648C131.25 45.8442 130.328 43.6186 128.687 41.9776C127.046 40.3367 124.821 39.4148 122.5 39.4148ZM122.5 131.29H91.875V118.165H122.5V131.29ZM126.875 99.897L118.604 110.235C118.294 110.623 118.125 111.105 118.125 111.602V113.79H96.25V99.1707L111.079 73.4895C111.127 73.4304 111.169 73.3714 111.21 73.3101C111.612 72.7142 112.153 72.2247 112.786 71.8837C113.419 71.5427 114.125 71.3603 114.844 71.3523C114.94 71.3523 115.552 71.4289 115.625 71.4398C116.119 71.5153 116.594 71.6822 117.027 71.932C118.031 72.5148 118.763 73.471 119.064 74.5919C119.365 75.7128 119.211 76.9073 118.635 77.9148L106.124 99.571L109.913 101.759L122.426 80.1023C123.081 79.0274 123.491 77.8209 123.627 76.5691C123.762 75.3173 123.619 74.0511 123.208 72.8609C122.797 71.6707 122.129 70.586 121.25 69.6842C120.371 68.7825 119.304 68.086 118.125 67.6445V48.1648C118.125 47.0045 118.586 45.8917 119.406 45.0712C120.227 44.2507 121.34 43.7898 122.5 43.7898C123.66 43.7898 124.773 44.2507 125.594 45.0712C126.414 45.8917 126.875 47.0045 126.875 48.1648V99.897Z" fill="url(#paint1_linear_727_5338)"/>
<path d="M96.25 122.54H100.625V126.915H96.25V122.54ZM41.2519 41.5804L47.1188 42.4182C47.5155 43.6514 48.0114 44.8505 48.6019 46.0035L45.0494 50.7417C44.7335 51.1629 44.5802 51.684 44.6176 52.2092C44.655 52.7344 44.8805 53.2284 45.2528 53.6007L51.4391 59.787C51.8114 60.1593 52.3054 60.3848 52.8306 60.4222C53.3558 60.4596 53.8769 60.3063 54.2981 59.9904L59.0363 56.4379C60.1893 57.0283 61.3884 57.5243 62.6216 57.921L63.4594 63.7879C63.5341 64.309 63.7943 64.7856 64.192 65.1304C64.5898 65.4751 65.0986 65.6649 65.625 65.6648H74.375C74.9014 65.6649 75.4102 65.4751 75.808 65.1304C76.2057 64.7856 76.4659 64.309 76.5406 63.7879L77.3784 57.921C78.6119 57.5249 79.8109 57.0289 80.9638 56.4379L85.7041 59.9904C86.1252 60.3057 86.6457 60.4586 87.1704 60.4213C87.6951 60.3839 88.1888 60.1587 88.5609 59.787L94.7472 53.6007C95.1195 53.2284 95.345 52.7344 95.3824 52.2092C95.4198 51.684 95.2665 51.1629 94.9506 50.7417L91.3959 46.0035C91.988 44.8509 92.4848 43.6518 92.8812 42.4182L98.7481 41.5804C99.2692 41.5057 99.7458 41.2455 100.091 40.8477C100.435 40.45 100.625 39.9412 100.625 39.4148V30.6648C100.625 30.1384 100.435 29.6296 100.091 29.2318C99.7458 28.8341 99.2692 28.5739 98.7481 28.4992L92.8812 27.6614C92.4848 26.4277 91.988 25.2286 91.3959 24.076L94.9506 19.3379C95.2665 18.9167 95.4198 18.3956 95.3824 17.8704C95.345 17.3452 95.1195 16.8512 94.7472 16.4789L88.5609 10.2926C88.1888 9.92087 87.6951 9.6957 87.1704 9.65833C86.6457 9.62097 86.1252 9.77392 85.7041 10.0892L80.9638 13.6417C79.8109 13.0507 78.6119 12.5547 77.3784 12.1585L76.5406 6.29167C76.4659 5.77061 76.2057 5.29398 75.808 4.94922C75.4102 4.60447 74.9014 4.41472 74.375 4.41479H65.625C65.0986 4.41472 64.5898 4.60447 64.192 4.94922C63.7943 5.29398 63.5341 5.77061 63.4594 6.29167L62.6216 12.1585C61.3884 12.5552 60.1893 13.0512 59.0363 13.6417L54.2981 10.0892C53.8769 9.77332 53.3558 9.62002 52.8306 9.65739C52.3054 9.69476 51.8114 9.9203 51.4391 10.2926L45.2528 16.4789C44.8805 16.8512 44.655 17.3452 44.6176 17.8704C44.5802 18.3956 44.7335 18.9167 45.0494 19.3379L48.6019 24.076C48.0114 25.2291 47.5155 26.4281 47.1188 27.6614L41.2519 28.4992C40.7308 28.5739 40.2542 28.8341 39.9094 29.2318C39.5647 29.6296 39.3749 30.1384 39.375 30.6648V39.4148C39.3749 39.9412 39.5647 40.45 39.9094 40.8477C40.2542 41.2455 40.7308 41.5057 41.2519 41.5804ZM43.75 32.5614L49.1378 31.7914C49.5667 31.7303 49.9679 31.5432 50.2903 31.2538C50.6128 30.9645 50.842 30.5859 50.9491 30.166C51.4087 28.3546 52.127 26.6188 53.0819 25.0123C53.3032 24.6398 53.4088 24.2099 53.3855 23.7772C53.3621 23.3445 53.2107 22.9285 52.9506 22.582L49.6869 18.2289L53.1869 14.7289L57.54 17.9926C57.8865 18.2527 58.3025 18.4041 58.7352 18.4274C59.1679 18.4508 59.5978 18.3451 59.9703 18.1239C61.5769 17.169 63.3126 16.4507 65.1241 15.991C65.5439 15.884 65.9225 15.6548 66.2118 15.3323C66.5012 15.0098 66.6883 14.6087 66.7494 14.1798L67.5216 8.78979H72.4784L73.2463 14.1776C73.3075 14.6068 73.4949 15.0081 73.7847 15.3306C74.0745 15.6531 74.4535 15.8822 74.8738 15.9889C76.6855 16.4476 78.4214 17.1659 80.0275 18.1217C80.3998 18.3425 80.8293 18.4479 81.2615 18.4245C81.6937 18.4012 82.1093 18.2501 82.4556 17.9904L86.8109 14.7267L90.3109 18.2267L87.0472 22.5798C86.7867 22.9261 86.635 23.342 86.6112 23.7747C86.5875 24.2074 86.6928 24.6374 86.9137 25.0101C87.8694 26.6175 88.5892 28.3539 89.0509 30.166C89.1582 30.5852 89.3873 30.9631 89.7093 31.252C90.0313 31.5409 90.4318 31.7278 90.86 31.7892L96.25 32.5614V37.5182L90.8622 38.2882C90.4339 38.3496 90.0335 38.5365 89.7115 38.8254C89.3895 39.1143 89.1604 39.4922 89.0531 39.9114C88.5914 41.7235 87.8716 43.4599 86.9159 45.0673C86.695 45.4401 86.5897 45.87 86.6134 46.3027C86.6372 46.7354 86.7889 47.1513 87.0494 47.4976L90.3131 51.8507L86.8131 55.3507L82.4578 52.087C82.1115 51.8273 81.6959 51.6762 81.2637 51.6529C80.8314 51.6295 80.402 51.7349 80.0297 51.9557C78.4236 52.9115 76.6877 53.6298 74.8759 54.0885C74.4557 54.1952 74.0766 54.4243 73.7869 54.7468C73.4971 55.0693 73.3097 55.4706 73.2484 55.8998L72.4784 61.2898H67.5216L66.7516 55.902C66.6905 55.4731 66.5034 55.0719 66.214 54.7495C65.9247 54.427 65.5461 54.1977 65.1262 54.0907C63.3148 53.6311 61.579 52.9128 59.9725 51.9579C59.6 51.7366 59.1701 51.631 58.7374 51.6543C58.3047 51.6777 57.8887 51.8291 57.5422 52.0892L53.1891 55.3529L49.6891 51.8529L52.9528 47.4998C53.2129 47.1532 53.3643 46.7373 53.3876 46.3046C53.411 45.8719 53.3053 45.442 53.0841 45.0695C52.1292 43.4629 51.4109 41.7272 50.9513 39.9157C50.8442 39.4959 50.615 39.1173 50.2925 38.828C49.97 38.5386 49.5689 38.3515 49.14 38.2904L43.75 37.5182V32.5614Z" fill="url(#paint2_linear_727_5338)"/>
<path d="M70 48.1647C72.5959 48.1647 75.1335 47.395 77.2919 45.9528C79.4503 44.5106 81.1325 42.4607 82.1259 40.0624C83.1193 37.6642 83.3792 35.0252 82.8728 32.4792C82.3664 29.9332 81.1163 27.5945 79.2808 25.7589C77.4452 23.9234 75.1066 22.6734 72.5606 22.1669C70.0146 21.6605 67.3756 21.9204 64.9773 22.9138C62.579 23.9072 60.5292 25.5895 59.087 27.7479C57.6448 29.9063 56.875 32.4438 56.875 35.0397C56.8785 38.5196 58.2624 41.856 60.7231 44.3167C63.1837 46.7773 66.5201 48.1613 70 48.1647ZM70 26.2897C71.7306 26.2897 73.4223 26.8029 74.8612 27.7644C76.3002 28.7258 77.4217 30.0924 78.0839 31.6912C78.7462 33.2901 78.9195 35.0494 78.5819 36.7468C78.2443 38.4441 77.4109 40.0032 76.1872 41.2269C74.9635 42.4506 73.4044 43.284 71.707 43.6216C70.0097 43.9592 68.2504 43.7859 66.6515 43.1237C65.0527 42.4614 63.6861 41.3399 62.7246 39.901C61.7632 38.462 61.25 36.7703 61.25 35.0397C61.25 32.7191 62.1719 30.4935 63.8128 28.8525C65.4538 27.2116 67.6794 26.2897 70 26.2897ZM67.8125 13.1647H72.1875V17.5397H67.8125V13.1647ZM52.9856 21.1185L56.0787 18.0254L59.1719 21.1185L56.0787 24.2116L52.9856 21.1185ZM48.125 32.8522H52.5V37.2272H48.125V32.8522ZM52.9856 48.961L56.0787 45.8679L59.1719 48.961L56.0787 52.0541L52.9856 48.961ZM67.8125 52.5397H72.1875V56.9147H67.8125V52.5397ZM80.8281 48.961L83.9212 45.8679L87.0144 48.961L83.9212 52.0541L80.8281 48.961ZM87.5 32.8522H91.875V37.2272H87.5V32.8522ZM80.8281 21.1185L83.9212 18.0254L87.0144 21.1185L83.9212 24.2116L80.8281 21.1185ZM109.375 21.9147C109.375 21.3346 109.605 20.7782 110.016 20.3679C110.426 19.9577 110.982 19.7272 111.562 19.7272H123.782L120.953 22.5557L124.047 25.6488L130.609 19.0863C131.019 18.6761 131.25 18.1198 131.25 17.5397C131.25 16.9597 131.019 16.4034 130.609 15.9932L124.047 9.43066L120.953 12.5238L123.782 15.3522H111.562C109.822 15.3522 108.153 16.0436 106.922 17.2743C105.691 18.505 105 20.1742 105 21.9147V43.7897H109.375V21.9147ZM105 48.1647H109.375V52.5397H105V48.1647ZM105 56.9147H109.375V61.2897H105V56.9147Z" fill="url(#paint3_linear_727_5338)"/>
<path d="M113.75 24.1022H118.125V28.4772H113.75V24.1022ZM113.75 32.8522H118.125V37.2272H113.75V32.8522ZM15.953 25.6488L19.0461 22.5557L16.2177 19.7272H28.437C29.0172 19.7272 29.5736 19.9577 29.9838 20.3679C30.3941 20.7782 30.6245 21.3346 30.6245 21.9147V43.7897H34.9995V21.9147C34.9995 20.1742 34.3081 18.505 33.0774 17.2743C31.8467 16.0436 30.1775 15.3522 28.437 15.3522H16.2177L19.0461 12.5238L15.953 9.43066L9.39047 15.9932C8.98038 16.4034 8.75 16.9597 8.75 17.5397C8.75 18.1198 8.98038 18.6761 9.39047 19.0863L15.953 25.6488ZM30.6245 48.1647H34.9995V52.5397H30.6245V48.1647ZM30.6245 56.9147H34.9995V61.2897H30.6245V56.9147Z" fill="url(#paint4_linear_727_5338)"/>
<path d="M21.875 24.1023H26.25V28.4773H21.875V24.1023ZM21.875 32.8523H26.25V37.2273H21.875V32.8523ZM57.5159 70.6807L50.9534 77.2432L54.0466 80.3364L56.875 77.5079V94.1023H61.25V77.5079L64.0784 80.3364L67.1716 77.2432L60.6091 70.6807C60.1988 70.2706 59.6425 70.0403 59.0625 70.0403C58.4825 70.0403 57.9262 70.2706 57.5159 70.6807ZM56.875 98.4773H61.25V102.852H56.875V98.4773ZM56.875 107.227H61.25V111.602H56.875V107.227ZM89.0466 77.2432L82.4841 70.6807C82.0738 70.2706 81.5175 70.0403 80.9375 70.0403C80.3575 70.0403 79.8012 70.2706 79.3909 70.6807L72.8284 77.2432L75.9216 80.3364L78.75 77.5079V94.1023H83.125V77.5079L85.9534 80.3364L89.0466 77.2432ZM78.75 98.4773H83.125V102.852H78.75V98.4773ZM78.75 107.227H83.125V111.602H78.75V107.227Z" fill="url(#paint5_linear_727_5338)"/>
<defs>
<linearGradient id="paint0_linear_727_5338" x1="30.625" y1="39.4148" x2="30.625" y2="135.665" gradientUnits="userSpaceOnUse">
<stop stop-color="#9590BC"/>
<stop offset="1" stop-color="#737279"/>
</linearGradient>
<linearGradient id="paint1_linear_727_5338" x1="85.3125" y1="39.4148" x2="85.3125" y2="135.665" gradientUnits="userSpaceOnUse">
<stop stop-color="#9590BC"/>
<stop offset="1" stop-color="#737279"/>
</linearGradient>
<linearGradient id="paint2_linear_727_5338" x1="70" y1="4.41479" x2="70" y2="126.915" gradientUnits="userSpaceOnUse">
<stop stop-color="#9590BC"/>
<stop offset="1" stop-color="#737279"/>
</linearGradient>
<linearGradient id="paint3_linear_727_5338" x1="89.6873" y1="9.43066" x2="89.6873" y2="61.2897" gradientUnits="userSpaceOnUse">
<stop stop-color="#9590BC"/>
<stop offset="1" stop-color="#737279"/>
</linearGradient>
<linearGradient id="paint4_linear_727_5338" x1="63.4373" y1="9.43066" x2="63.4373" y2="61.2897" gradientUnits="userSpaceOnUse">
<stop stop-color="#9590BC"/>
<stop offset="1" stop-color="#737279"/>
</linearGradient>
<linearGradient id="paint5_linear_727_5338" x1="55.4608" y1="24.1023" x2="55.4608" y2="111.602" gradientUnits="userSpaceOnUse">
<stop stop-color="#9590BC"/>
<stop offset="1" stop-color="#737279"/>
</linearGradient>
</defs>
</svg>
