<svg width="129" height="129" viewBox="0 0 129 129" fill="none" xmlns="http://www.w3.org/2000/svg">
<path d="M46.0693 104.774H44.0663V90.8533C44.0668 90.5019 43.975 90.1565 43.7999 89.8518L29.9549 65.8796C29.8694 65.7329 29.7758 65.5911 29.6745 65.4549C29.0337 64.5096 28.1999 63.7108 27.228 63.1111C26.2561 62.5114 25.1682 62.1244 24.036 61.9757V44.6835C24.036 42.5586 23.1918 40.5206 21.6893 39.0181C20.1867 37.5155 18.1488 36.6714 16.0238 36.6714C13.8989 36.6714 11.861 37.5155 10.3584 39.0181C8.85585 40.5206 8.01172 42.5586 8.01172 44.6835V92.7562C8.01151 93.2112 8.16621 93.6528 8.45038 94.0081L16.0238 103.474V104.774H14.0208C13.4896 104.774 12.9801 104.985 12.6045 105.361C12.2288 105.737 12.0178 106.246 12.0178 106.777V122.802C12.0178 123.333 12.2288 123.842 12.6045 124.218C12.9801 124.594 13.4896 124.805 14.0208 124.805H46.0693C46.6005 124.805 47.11 124.594 47.4856 124.218C47.8613 123.842 48.0723 123.333 48.0723 122.802V106.777C48.0723 106.246 47.8613 105.737 47.4856 105.361C47.11 104.985 46.6005 104.774 46.0693 104.774ZM19.5912 101.519L12.0178 92.0532V44.6835C12.0178 43.621 12.4398 42.6021 13.1911 41.8508C13.9424 41.0995 14.9614 40.6774 16.0238 40.6774C17.0863 40.6774 18.1053 41.0995 18.8565 41.8508C19.6078 42.6021 20.0299 43.621 20.0299 44.6835V62.5205C19.6866 62.6526 19.3521 62.8065 19.0284 62.9812C17.1927 64.0483 15.8536 65.7983 15.3034 67.8491C14.7533 69.8999 15.0368 72.0851 16.0919 73.9277L27.5493 93.7577L31.0185 91.7547L19.5612 71.9247C19.0338 71.0058 18.8905 69.9159 19.1625 68.8919C19.4344 67.8679 20.0996 66.9926 21.0134 66.4564C21.4153 66.222 21.8576 66.065 22.3174 65.9937C22.3855 65.9837 22.9463 65.9136 23.0344 65.9136C23.746 65.9132 24.4441 66.1071 25.0535 66.4745C25.5822 66.7739 26.0309 67.1965 26.3615 67.7063C26.3995 67.7624 26.4656 67.8646 26.5077 67.9166L40.0602 91.3882V104.774H20.0299V102.771C20.0301 102.316 19.8754 101.875 19.5912 101.519ZM44.0663 120.799H16.0238V108.78H44.0663V120.799Z" fill="url(#paint0_linear_707_5122)"/>
<path d="M36.0547 112.787H40.0607V116.793H36.0547V112.787ZM112.17 36.6714C110.045 36.6714 108.007 37.5155 106.504 39.0181C105.002 40.5206 104.158 42.5586 104.158 44.6835V61.9757C103.102 62.104 102.085 62.4491 101.169 62.9892C100.106 63.5916 99.1986 64.4355 98.5212 65.4529C98.4107 65.6011 98.309 65.7556 98.2167 65.9156L84.3958 89.8538C84.2207 90.1585 84.1288 90.5039 84.1294 90.8553V104.774H82.1244C81.5931 104.774 81.0837 104.985 80.708 105.361C80.3324 105.737 80.1213 106.246 80.1213 106.777V122.802C80.1213 123.333 80.3324 123.842 80.708 124.218C81.0837 124.594 81.5931 124.805 82.1244 124.805H114.173C114.704 124.805 115.214 124.594 115.589 124.218C115.965 123.842 116.176 123.333 116.176 122.802V106.777C116.176 106.246 115.965 105.737 115.589 105.361C115.214 104.985 114.704 104.774 114.173 104.774H112.17V103.474L119.743 94.0081C120.027 93.6528 120.182 93.2112 120.182 92.7562V44.6835C120.182 42.5586 119.338 40.5206 117.835 39.0181C116.333 37.5155 114.295 36.6714 112.17 36.6714ZM112.17 120.799H84.1274V108.78H112.17V120.799ZM116.176 92.0532L108.602 101.519C108.318 101.875 108.164 102.316 108.164 102.771V104.774H88.1335V91.3882L101.712 67.8726C101.756 67.8185 101.794 67.7644 101.832 67.7083C102.2 67.1626 102.695 66.7144 103.275 66.4022C103.854 66.0899 104.501 65.923 105.159 65.9156C105.247 65.9156 105.808 65.9857 105.874 65.9957C106.327 66.0648 106.762 66.2177 107.158 66.4464C108.077 66.9801 108.748 67.8557 109.024 68.882C109.3 69.9084 109.158 71.0022 108.63 71.9247L97.1751 91.7547L100.644 93.7577L112.102 73.9277C112.702 72.9435 113.078 71.8388 113.202 70.6925C113.325 69.5463 113.195 68.3868 112.818 67.297C112.442 66.2072 111.83 65.2139 111.025 64.3882C110.221 63.5625 109.243 62.9247 108.164 62.5205V44.6835C108.164 43.621 108.586 42.6021 109.337 41.8508C110.088 41.0995 111.107 40.6774 112.17 40.6774C113.232 40.6774 114.251 41.0995 115.003 41.8508C115.754 42.6021 116.176 43.621 116.176 44.6835V92.0532Z" fill="url(#paint1_linear_707_5122)"/>
<path d="M88.1335 112.787H92.1395V116.793H88.1335V112.787ZM37.7733 38.6545L43.1454 39.4217C43.5087 40.5509 43.9628 41.6488 44.5035 42.7046L41.2505 47.0432C40.9613 47.4289 40.821 47.906 40.8552 48.3869C40.8894 48.8678 41.0959 49.3203 41.4368 49.6612L47.1014 55.3257C47.4423 55.6666 47.8947 55.8732 48.3756 55.9074C48.8565 55.9416 49.3336 55.8012 49.7194 55.512L54.0579 52.2591C55.1138 52.7997 56.2117 53.2539 57.3409 53.6171L58.108 58.9893C58.1765 59.4664 58.4147 59.9028 58.7789 60.2185C59.1432 60.5342 59.609 60.7079 60.091 60.7079H68.1032C68.5852 60.7079 69.051 60.5342 69.4153 60.2185C69.7795 59.9028 70.0177 59.4664 70.0862 58.9893L70.8533 53.6171C71.9827 53.2544 73.0807 52.8002 74.1363 52.2591L78.4769 55.512C78.8624 55.8007 79.3391 55.9407 79.8195 55.9065C80.3 55.8723 80.752 55.6661 81.0928 55.3257L86.7574 49.6612C87.0983 49.3203 87.3048 48.8678 87.339 48.3869C87.3732 47.906 87.2329 47.4289 86.9437 47.0432L83.6887 42.7046C84.2309 41.6492 84.6857 40.5513 85.0488 39.4217L90.4209 38.6545C90.898 38.5861 91.3345 38.3479 91.6502 37.9836C91.9658 37.6194 92.1396 37.1535 92.1395 36.6715V28.6594C92.1396 28.1774 91.9658 27.7115 91.6502 27.3473C91.3345 26.983 90.898 26.7448 90.4209 26.6764L85.0488 25.9092C84.6857 24.7797 84.2309 23.6817 83.6887 22.6263L86.9437 18.2877C87.2329 17.902 87.3732 17.4249 87.339 16.944C87.3048 16.4631 87.0983 16.0107 86.7574 15.6698L81.0928 10.0052C80.752 9.6648 80.3 9.45861 79.8195 9.4244C79.3391 9.39019 78.8624 9.53024 78.4769 9.81891L74.1363 13.0718C73.0807 12.5307 71.9827 12.0765 70.8533 11.7138L70.0862 6.34165C70.0177 5.86453 69.7795 5.42809 69.4153 5.11241C69.051 4.79673 68.5852 4.62298 68.1032 4.62305H60.091C59.609 4.62298 59.1432 4.79673 58.7789 5.11241C58.4147 5.42809 58.1765 5.86453 58.108 6.34165L57.3409 11.7138C56.2117 12.077 55.1138 12.5312 54.0579 13.0718L49.7194 9.81891C49.3336 9.5297 48.8565 9.38932 48.3756 9.42353C47.8947 9.45775 47.4423 9.66427 47.1014 10.0052L41.4368 15.6698C41.0959 16.0107 40.8894 16.4631 40.8552 16.944C40.821 17.4249 40.9613 17.902 41.2505 18.2877L44.5035 22.6263C43.9628 23.6821 43.5087 24.78 43.1454 25.9092L37.7733 26.6764C37.2962 26.7448 36.8597 26.983 36.544 27.3473C36.2284 27.7115 36.0546 28.1774 36.0547 28.6594V36.6715C36.0546 37.1535 36.2284 37.6194 36.544 37.9836C36.8597 38.3479 37.2962 38.5861 37.7733 38.6545ZM40.0607 30.396L44.9942 29.691C45.387 29.635 45.7543 29.4637 46.0495 29.1988C46.3448 28.9338 46.5547 28.5871 46.6527 28.2027C47.0736 26.544 47.7314 24.9546 48.6057 23.4836C48.8083 23.1424 48.905 22.7488 48.8836 22.3526C48.8623 21.9564 48.7237 21.5755 48.4855 21.2582L45.497 17.2722L48.7018 14.0673L52.6878 17.0559C53.0052 17.294 53.3861 17.4326 53.7823 17.454C54.1785 17.4754 54.5721 17.3787 54.9132 17.176C56.3843 16.3017 57.9737 15.644 59.6323 15.2231C60.0168 15.1251 60.3634 14.9151 60.6284 14.6199C60.8933 14.3246 61.0647 13.9573 61.1206 13.5646L61.8277 8.62911H66.3665L67.0696 13.5626C67.1257 13.9556 67.2973 14.3231 67.5626 14.6183C67.828 14.9136 68.1751 15.1234 68.5599 15.2211C70.2188 15.6411 71.8083 16.2989 73.279 17.174C73.6199 17.3762 74.0131 17.4727 74.4089 17.4513C74.8047 17.4299 75.1852 17.2916 75.5024 17.0538L79.4904 14.0653L82.6952 17.2702L79.7067 21.2562C79.4682 21.5733 79.3293 21.9541 79.3075 22.3503C79.2858 22.7465 79.3822 23.1402 79.5845 23.4816C80.4596 24.9534 81.1187 26.5434 81.5415 28.2027C81.6397 28.5865 81.8495 28.9325 82.1443 29.1971C82.4392 29.4616 82.8059 29.6328 83.198 29.689L88.1335 30.396V34.9349L83.2 35.64C82.8079 35.6961 82.4412 35.8673 82.1463 36.1319C81.8515 36.3964 81.6417 36.7424 81.5435 37.1262C81.1207 38.7855 80.4616 40.3755 79.5865 41.8473C79.3842 42.1887 79.2878 42.5824 79.3095 42.9786C79.3313 43.3748 79.4702 43.7556 79.7087 44.0727L82.6972 48.0587L79.4924 51.2636L75.5044 48.2751C75.1872 48.0373 74.8067 47.899 74.4109 47.8776C74.0151 47.8562 73.6219 47.9527 73.281 48.1549C71.8103 49.03 70.2208 49.6878 68.5619 50.1078C68.1771 50.2055 67.83 50.4153 67.5646 50.7106C67.2993 51.0059 67.1277 51.3733 67.0716 51.7663L66.3665 56.7018H61.8277L61.1226 51.7684C61.0667 51.3756 60.8953 51.0083 60.6304 50.713C60.3654 50.4178 60.0188 50.2078 59.6343 50.1098C57.9757 49.6889 56.3863 49.0312 54.9152 48.1569C54.5741 47.9543 54.1805 47.8575 53.7843 47.8789C53.3881 47.9003 53.0072 48.0389 52.6898 48.2771L48.7038 51.2656L45.499 48.0607L48.4875 44.0747C48.7257 43.7574 48.8643 43.3765 48.8857 42.9803C48.907 42.5841 48.8103 42.1905 48.6077 41.8493C47.7334 40.3783 47.0756 38.7889 46.6547 37.1302C46.5567 36.7458 46.3468 36.3991 46.0515 36.1342C45.7563 35.8692 45.389 35.6979 44.9962 35.642L40.0607 34.9349V30.396Z" fill="url(#paint2_linear_707_5122)"/>
<path d="M64.0967 44.6835C66.4737 44.6835 68.7973 43.9786 70.7736 42.658C72.75 41.3375 74.2904 39.4605 75.2001 37.2644C76.1097 35.0684 76.3477 32.652 75.884 30.3207C75.4202 27.9894 74.2756 25.8479 72.5948 24.1672C70.9141 22.4864 68.7726 21.3418 66.4413 20.878C64.11 20.4143 61.6936 20.6523 59.4975 21.5619C57.3015 22.4716 55.4245 24.012 54.104 25.9883C52.7834 27.9647 52.0785 30.2883 52.0785 32.6653C52.0817 35.8517 53.3489 38.9068 55.6021 41.1599C57.8552 43.4131 60.9103 44.6803 64.0967 44.6835ZM64.0967 24.6532C65.6813 24.6532 67.2304 25.1231 68.548 26.0035C69.8656 26.8838 70.8925 28.1352 71.4989 29.5992C72.1054 31.0632 72.264 32.6742 71.9549 34.2284C71.6457 35.7826 70.8826 37.2102 69.7621 38.3307C68.6416 39.4512 67.214 40.2143 65.6598 40.5235C64.1056 40.8326 62.4946 40.6739 61.0306 40.0675C59.5666 39.4611 58.3153 38.4342 57.4349 37.1166C56.5545 35.799 56.0846 34.2499 56.0846 32.6653C56.0846 30.5403 56.9287 28.5024 58.4313 26.9999C59.9338 25.4973 61.9718 24.6532 64.0967 24.6532ZM62.0937 12.635H66.0997V16.6411H62.0937V12.635ZM48.5171 19.918L51.3494 17.0857L54.1817 19.918L51.3494 22.7503L48.5171 19.918ZM44.0664 30.6623H48.0725V34.6683H44.0664V30.6623ZM48.5171 45.4126L51.3494 42.5803L54.1817 45.4126L51.3494 48.2449L48.5171 45.4126ZM62.0937 48.6895H66.0997V52.6956H62.0937V48.6895ZM74.0117 45.4126L76.844 42.5803L79.6763 45.4126L76.844 48.2449L74.0117 45.4126ZM80.1209 30.6623H84.127V34.6683H80.1209V30.6623ZM74.0117 19.918L76.844 17.0857L79.6763 19.918L76.844 22.7503L74.0117 19.918ZM100.151 20.6471C100.151 20.1159 100.362 19.6064 100.738 19.2308C101.114 18.8551 101.623 18.6441 102.154 18.6441H113.343L110.753 21.234L113.586 24.0663L119.595 18.0572C119.97 17.6816 120.181 17.1722 120.181 16.6411C120.181 16.1099 119.97 15.6005 119.595 15.2249L113.586 9.21582L110.753 12.0481L113.343 14.638H102.154C100.561 14.638 99.0321 15.2711 97.9052 16.398C96.7783 17.525 96.1452 19.0534 96.1452 20.6471V40.6774H100.151V20.6471ZM96.1452 44.6835H100.151V48.6895H96.1452V44.6835ZM96.1452 52.6956H100.151V56.7016H96.1452V52.6956Z" fill="url(#paint3_linear_707_5122)"/>
<path d="M104.157 22.6501H108.163V26.6562H104.157V22.6501ZM104.157 30.6623H108.163V34.6683H104.157V30.6623ZM14.6073 24.0663L17.4396 21.234L14.8496 18.6441H26.0386C26.5698 18.6441 27.0793 18.8551 27.4549 19.2308C27.8306 19.6064 28.0416 20.1159 28.0416 20.6471V40.6774H32.0476V20.6471C32.0476 19.0534 31.4145 17.525 30.2876 16.398C29.1607 15.2711 27.6323 14.638 26.0386 14.638H14.8496L17.4396 12.0481L14.6073 9.21582L8.59818 15.2249C8.22267 15.6005 8.01172 16.1099 8.01172 16.6411C8.01172 17.1722 8.22267 17.6816 8.59818 18.0572L14.6073 24.0663ZM28.0416 44.6835H32.0476V48.6895H28.0416V44.6835ZM28.0416 52.6956H32.0476V56.7016H28.0416V52.6956Z" fill="url(#paint4_linear_707_5122)"/>
<path d="M20.0273 22.6499H24.0334V26.656H20.0273V22.6499ZM20.0273 30.662H24.0334V34.6681H20.0273V30.662ZM52.6627 65.3004L46.6536 71.3095L49.4859 74.1418L52.0758 71.5519V86.7469H56.0819V71.5519L58.6718 74.1418L61.5041 71.3095L55.495 65.3004C55.1194 64.9249 54.61 64.714 54.0788 64.714C53.5477 64.714 53.0383 64.9249 52.6627 65.3004ZM52.0758 90.7529H56.0819V94.759H52.0758V90.7529ZM52.0758 98.765H56.0819V102.771H52.0758V98.765ZM81.5344 71.3095L75.5253 65.3004C75.1497 64.9249 74.6403 64.714 74.1091 64.714C73.578 64.714 73.0686 64.9249 72.693 65.3004L66.6839 71.3095L69.5162 74.1418L72.1061 71.5519V86.7469H76.1122V71.5519L78.7021 74.1418L81.5344 71.3095ZM72.1061 90.7529H76.1122V94.759H72.1061V90.7529ZM72.1061 98.765H76.1122V102.771H72.1061V98.765Z" fill="url(#paint5_linear_707_5122)"/>
<defs>
<linearGradient id="paint0_linear_707_5122" x1="28.042" y1="36.6714" x2="28.042" y2="124.805" gradientUnits="userSpaceOnUse">
<stop stop-color="#9590BC"/>
<stop offset="1" stop-color="#737279"/>
</linearGradient>
<linearGradient id="paint1_linear_707_5122" x1="78.1183" y1="36.6714" x2="78.1183" y2="124.805" gradientUnits="userSpaceOnUse">
<stop stop-color="#9590BC"/>
<stop offset="1" stop-color="#737279"/>
</linearGradient>
<linearGradient id="paint2_linear_707_5122" x1="64.0971" y1="4.62305" x2="64.0971" y2="116.793" gradientUnits="userSpaceOnUse">
<stop stop-color="#9590BC"/>
<stop offset="1" stop-color="#737279"/>
</linearGradient>
<linearGradient id="paint3_linear_707_5122" x1="82.1238" y1="9.21582" x2="82.1238" y2="56.7016" gradientUnits="userSpaceOnUse">
<stop stop-color="#9590BC"/>
<stop offset="1" stop-color="#737279"/>
</linearGradient>
<linearGradient id="paint4_linear_707_5122" x1="58.0872" y1="9.21582" x2="58.0872" y2="56.7016" gradientUnits="userSpaceOnUse">
<stop stop-color="#9590BC"/>
<stop offset="1" stop-color="#737279"/>
</linearGradient>
<linearGradient id="paint5_linear_707_5122" x1="50.7809" y1="22.6499" x2="50.7809" y2="102.771" gradientUnits="userSpaceOnUse">
<stop stop-color="#9590BC"/>
<stop offset="1" stop-color="#737279"/>
</linearGradient>
</defs>
</svg>
