<svg width="140" height="140" viewBox="0 0 140 140" fill="none" xmlns="http://www.w3.org/2000/svg">
<g clip-path="url(#clip0_727_5348)">
<path d="M83.4064 11.2967C89.9957 12.7971 96.2821 15.4065 101.997 19.0134C102.488 19.3225 103.082 19.4238 103.648 19.295C104.213 19.1663 104.705 18.8181 105.014 18.327C105.323 17.8359 105.424 17.2421 105.296 16.6763C105.167 16.1105 104.819 15.619 104.328 15.31C98.1942 11.4389 91.4473 8.63876 84.3752 7.02918C83.8093 6.90071 83.2155 7.00232 82.7245 7.31164C82.2335 7.62096 81.8855 8.11267 81.757 8.67858C81.6286 9.2445 81.7302 9.83827 82.0395 10.3293C82.3488 10.8203 82.8405 11.1683 83.4064 11.2967ZM121.631 105.002C121.874 105.155 122.144 105.258 122.428 105.307C122.711 105.355 123.001 105.347 123.281 105.284C123.561 105.22 123.826 105.102 124.06 104.936C124.295 104.769 124.494 104.559 124.647 104.316C128.516 98.1791 131.315 91.43 132.924 84.3561C132.989 84.0756 132.997 83.785 132.95 83.5011C132.902 83.2172 132.799 82.9455 132.646 82.7016C132.493 82.4576 132.293 82.2463 132.058 82.0797C131.824 81.9131 131.558 81.7945 131.277 81.7306C130.997 81.6668 130.706 81.659 130.422 81.7077C130.139 81.7564 129.867 81.8606 129.624 82.0144C129.381 82.1682 129.17 82.3685 129.004 82.6038C128.838 82.8392 128.721 83.105 128.658 83.3859C127.158 89.9775 124.55 96.2664 120.944 101.984C120.635 102.475 120.533 103.069 120.662 103.635C120.791 104.201 121.139 104.692 121.631 105.002ZM38.003 120.937C37.7598 120.784 37.4889 120.68 37.2057 120.632C36.9225 120.584 36.6325 120.592 36.3523 120.655C36.0722 120.719 35.8073 120.837 35.5729 121.003C35.3384 121.17 35.139 121.38 34.986 121.623C34.833 121.867 34.7293 122.138 34.681 122.421C34.6327 122.704 34.6406 122.994 34.7043 123.274C34.7681 123.554 34.8864 123.819 35.0525 124.054C35.2186 124.288 35.4292 124.487 35.6724 124.64C41.8058 128.512 48.5528 131.312 55.6248 132.921C56.1907 133.05 56.7845 132.948 57.2755 132.639C57.7665 132.329 58.1145 131.838 58.243 131.272C58.3714 130.706 58.2698 130.112 57.9605 129.621C57.6512 129.13 57.1595 128.782 56.5936 128.654C50.0043 127.153 43.7179 124.544 38.003 120.937ZM18.3737 34.9628C17.8833 34.6531 17.29 34.5507 16.7241 34.6781C16.1583 34.8055 15.6661 35.1523 15.3558 35.6423C11.4782 41.7721 8.67799 48.5201 7.07627 55.5943C7.01147 55.8748 7.00267 56.1653 7.05039 56.4493C7.09811 56.7332 7.2014 57.0049 7.35434 57.2488C7.50729 57.4927 7.70688 57.704 7.94167 57.8706C8.17645 58.0373 8.44182 58.1559 8.72255 58.2197C9.00328 58.2836 9.29386 58.2914 9.57761 58.2427C9.86136 58.194 10.1327 58.0898 10.3761 57.936C10.6195 57.7822 10.8301 57.5819 10.9959 57.3465C11.1617 57.1112 11.2794 56.8454 11.3423 56.5644C12.8343 49.976 15.4424 43.6913 19.0536 37.9823C19.3636 37.4917 19.4661 36.898 19.3387 36.3318C19.2112 35.7657 18.8641 35.2732 18.3737 34.9628ZM36.8398 19.35C37.2516 19.3504 37.6551 19.2336 38.003 19.0134C43.7179 15.4065 50.0043 12.7971 56.5936 11.2967C57.1595 11.1683 57.6512 10.8202 57.9605 10.3292C58.2698 9.83824 58.3714 9.24447 58.243 8.67855C58.1145 8.11263 57.7665 7.62093 57.2755 7.31161C56.7845 7.00228 56.1907 6.90068 55.6248 7.02915C48.5528 8.63873 41.8058 11.4389 35.6724 15.3099C35.2706 15.5628 34.962 15.9394 34.7931 16.3831C34.6242 16.8267 34.6041 17.3132 34.7359 17.7692C34.8676 18.2253 35.1441 18.6261 35.5237 18.9112C35.9032 19.1964 36.3651 19.3504 36.8398 19.35ZM8.72491 81.7372C8.15901 81.8659 7.66741 82.2141 7.35824 82.7052C7.04907 83.1963 6.94764 83.7902 7.07627 84.3561C8.68491 91.43 11.4837 98.1792 15.3531 104.316C15.5062 104.559 15.7057 104.769 15.9401 104.935C16.1746 105.101 16.4395 105.22 16.7197 105.283C16.9999 105.347 17.2899 105.355 17.5731 105.307C17.8563 105.258 18.1272 105.154 18.3704 105.001C18.6135 104.848 18.8242 104.649 18.9902 104.414C19.1563 104.18 19.2745 103.915 19.3382 103.635C19.4019 103.355 19.4098 103.065 19.3614 102.781C19.313 102.498 19.2093 102.227 19.0562 101.984C15.4501 96.2663 12.8417 89.9775 11.3423 83.3859C11.279 83.1056 11.161 82.8406 10.9951 82.606C10.8292 82.3714 10.6187 82.1718 10.3756 82.0186C10.1325 81.8655 9.86152 81.7618 9.57828 81.7135C9.29503 81.6652 9.00504 81.6733 8.72491 81.7372ZM83.8887 132.976C84.0524 132.976 84.2156 132.958 84.3752 132.921C91.4473 131.312 98.1942 128.512 104.328 124.64C104.571 124.487 104.781 124.288 104.948 124.054C105.114 123.819 105.232 123.554 105.296 123.274C105.359 122.994 105.367 122.704 105.319 122.421C105.271 122.138 105.167 121.867 105.014 121.623C104.861 121.38 104.662 121.17 104.427 121.004C104.193 120.837 103.928 120.719 103.648 120.655C103.368 120.592 103.078 120.584 102.794 120.632C102.511 120.68 102.24 120.784 101.997 120.937C96.2821 124.544 89.9958 127.153 83.4064 128.654C82.882 128.773 82.4198 129.081 82.1082 129.52C81.7965 129.958 81.6572 130.496 81.7169 131.03C81.7765 131.565 82.0309 132.059 82.4315 132.417C82.8321 132.776 83.3509 132.975 83.8887 132.976ZM128.658 56.5645C128.721 56.8455 128.838 57.1112 129.004 57.3466C129.17 57.582 129.381 57.7823 129.624 57.9361C129.867 58.0898 130.139 58.1941 130.422 58.2427C130.706 58.2914 130.997 58.2836 131.277 58.2198C131.558 58.156 131.824 58.0373 132.058 57.8707C132.293 57.7041 132.493 57.4928 132.646 57.2489C132.799 57.005 132.902 56.7332 132.95 56.4493C132.997 56.1654 132.989 55.8749 132.924 55.5944C131.322 48.5202 128.522 41.7722 124.644 35.6424C124.334 35.152 123.842 34.805 123.275 34.6777C122.709 34.5504 122.116 34.6532 121.625 34.9635C121.135 35.2738 120.788 35.7662 120.661 36.3323C120.533 36.8985 120.636 37.4921 120.946 37.9824C124.558 43.6914 127.166 49.9761 128.658 56.5645ZM119.219 69.9752C119.219 43.4296 97.1392 21.8332 70 21.8332C42.8608 21.8332 20.7813 43.4296 20.7813 69.9752C20.7813 96.5209 42.8608 118.117 70 118.117C97.1392 118.117 119.219 96.5209 119.219 69.9752ZM70 113.741C45.2731 113.741 25.1563 94.1072 25.1563 69.9752C25.1563 45.8433 45.2731 26.2097 70 26.2097C94.7269 26.2097 114.844 45.8432 114.844 69.9752C114.844 94.1072 94.7269 113.741 70 113.741ZM70 16.3625C70.5803 16.3623 71.1367 16.1317 71.5469 15.7213C71.9572 15.3109 72.1876 14.7544 72.1875 14.1742V8.39619C72.6224 8.65183 73.1326 8.74872 73.6309 8.67034C74.1293 8.59196 74.5851 8.34317 74.9205 7.96637C75.256 7.58957 75.4504 7.10808 75.4706 6.60399C75.4908 6.0999 75.3356 5.6044 75.0314 5.20195L71.7501 0.825422C71.5373 0.567283 71.2701 0.359413 70.9675 0.216709C70.6649 0.0740042 70.3345 0 70 0C69.6655 0 69.3351 0.0740042 69.0325 0.216709C68.7299 0.359413 68.4627 0.567283 68.2499 0.825422L64.9687 5.20195C64.6661 5.60524 64.5121 6.10061 64.5327 6.60433C64.5533 7.10805 64.7471 7.58922 65.0815 7.96649C65.4159 8.34377 65.8703 8.59402 66.3679 8.67493C66.8655 8.75584 67.3758 8.66245 67.8125 8.41056V14.1742C67.8124 14.7544 68.0429 15.3109 68.4531 15.7213C68.8633 16.1317 69.4198 16.3623 70 16.3625ZM70 123.588C69.4198 123.588 68.8633 123.819 68.4531 124.229C68.0429 124.639 67.8124 125.196 67.8125 125.776V131.541C67.3759 131.289 66.8657 131.195 66.3681 131.276C65.8704 131.357 65.416 131.607 65.0815 131.984C64.7471 132.361 64.5532 132.842 64.5326 133.346C64.512 133.85 64.6661 134.345 64.9687 134.748L68.2499 139.125C68.4537 139.397 68.7179 139.617 69.0216 139.769C69.3254 139.921 69.6604 140 70 140C70.3396 140 70.6746 139.921 70.9784 139.769C71.2821 139.617 71.5464 139.397 71.7501 139.125L75.0314 134.748C75.334 134.345 75.488 133.85 75.4675 133.346C75.4469 132.842 75.253 132.361 74.9185 131.984C74.5841 131.607 74.1296 131.357 73.6319 131.276C73.1343 131.195 72.6241 131.289 72.1875 131.541V125.776C72.1876 125.196 71.9572 124.639 71.5469 124.229C71.1367 123.819 70.5803 123.588 70 123.588ZM139.125 68.225L134.75 64.9427C134.347 64.6401 133.852 64.4861 133.348 64.5067C132.844 64.5273 132.363 64.7213 131.986 65.0558C131.609 65.3904 131.359 65.8449 131.278 66.3426C131.197 66.8402 131.291 67.3505 131.543 67.787H125.781C125.201 67.787 124.644 68.0175 124.234 68.4279C123.824 68.8383 123.593 69.3949 123.593 69.9752C123.593 70.5556 123.824 71.1122 124.234 71.5226C124.644 71.933 125.201 72.1635 125.781 72.1635H131.543C131.291 72.6 131.197 73.1103 131.278 73.608C131.358 74.1058 131.608 74.5604 131.985 74.895C132.363 75.2296 132.844 75.4236 133.348 75.4441C133.852 75.4647 134.347 75.3106 134.75 75.0078L139.125 71.7255C139.397 71.5216 139.617 71.2574 139.769 70.9536C139.921 70.6498 140 70.3149 140 69.9753C140 69.6357 139.921 69.3007 139.769 68.997C139.617 68.6932 139.397 68.4288 139.125 68.225ZM0.874789 71.7254L5.24979 75.0078C5.65304 75.3103 6.14841 75.4643 6.65212 75.4436C7.15583 75.423 7.63695 75.229 8.0141 74.8945C8.39126 74.56 8.6413 74.1055 8.72193 73.6078C8.80257 73.1102 8.70884 72.6 8.45661 72.1635H14.2188C14.7991 72.1635 15.3557 71.933 15.7661 71.5226C16.1765 71.1122 16.407 70.5556 16.407 69.9752C16.407 69.3949 16.1765 68.8383 15.7661 68.4279C15.3557 68.0175 14.7991 67.787 14.2188 67.787H8.45661C8.70893 67.3505 8.80273 66.8402 8.72213 66.3425C8.64154 65.8448 8.3915 65.3903 8.01432 65.0557C7.63714 64.7212 7.15597 64.5272 6.65221 64.5065C6.14846 64.4859 5.65305 64.64 5.24979 64.9426L0.874789 68.2249C0.603163 68.4288 0.38271 68.693 0.230877 68.9968C0.0790443 69.3006 0 69.6355 0 69.9751C0 70.3147 0.0790443 70.6497 0.230877 70.9534C0.38271 71.2572 0.603163 71.5216 0.874789 71.7254ZM110.372 116.86C110.331 117.144 110.347 117.434 110.418 117.712C110.489 117.991 110.615 118.252 110.787 118.482C110.959 118.712 111.175 118.906 111.423 119.052C111.67 119.198 111.943 119.295 112.228 119.335L117.642 120.109C117.744 120.124 117.847 120.131 117.951 120.131C118.264 120.131 118.574 120.064 118.859 119.934C119.144 119.803 119.398 119.613 119.604 119.376C119.809 119.14 119.961 118.861 120.05 118.561C120.138 118.26 120.161 117.944 120.117 117.633L119.343 112.217C119.271 111.718 119.03 111.259 118.659 110.917C118.288 110.576 117.811 110.373 117.308 110.343C116.805 110.313 116.306 110.457 115.898 110.752C115.489 111.047 115.194 111.474 115.064 111.961L110.99 107.885C110.58 107.475 110.023 107.245 109.443 107.245C108.863 107.245 108.306 107.476 107.896 107.886C107.486 108.296 107.256 108.853 107.256 109.433C107.256 110.013 107.486 110.57 107.897 110.98L111.973 115.058C111.559 115.169 111.187 115.399 110.902 115.719C110.618 116.039 110.433 116.436 110.372 116.86ZM29.6285 23.0907C29.6691 22.8063 29.6534 22.5166 29.5821 22.2382C29.5108 21.9599 29.3854 21.6983 29.213 21.4684C29.0407 21.2385 28.8247 21.0448 28.5774 20.8984C28.3302 20.752 28.0565 20.6557 27.7721 20.6151L22.3583 19.8415C22.0221 19.7935 21.6793 19.8245 21.3571 19.9319C21.0349 20.0394 20.7421 20.2204 20.502 20.4606C20.2618 20.7008 20.0809 20.9937 19.9736 21.3159C19.8662 21.6381 19.8354 21.9809 19.8835 22.3172L20.6573 27.7334C20.7318 28.2543 20.9914 28.7308 21.3887 29.0758C21.7859 29.4208 22.2942 29.6111 22.8203 29.6118C22.9248 29.6117 23.0292 29.6042 23.1327 29.5894C23.557 29.5287 23.9541 29.3446 24.2747 29.0601C24.5952 28.7756 24.8252 28.4032 24.9359 27.9891L29.01 32.0651C29.4203 32.4753 29.9768 32.7056 30.557 32.7055C31.1372 32.7054 31.6936 32.4749 32.1038 32.0645C32.514 31.6542 32.7444 31.0977 32.7443 30.5175C32.7442 29.9373 32.5136 29.3809 32.1033 28.9707L28.0287 24.8943C28.4427 24.7834 28.815 24.5533 29.0993 24.2327C29.3837 23.9121 29.5677 23.515 29.6285 23.0907ZM117.642 19.8415L112.228 20.615C111.729 20.6862 111.27 20.9276 110.928 21.2984C110.586 21.6692 110.383 22.1466 110.353 22.6498C110.323 23.1531 110.468 23.6513 110.763 24.0601C111.058 24.469 111.485 24.7634 111.972 24.8935L107.897 28.9707C107.486 29.3809 107.256 29.9373 107.256 30.5175C107.256 30.8048 107.312 31.0893 107.422 31.3547C107.532 31.6201 107.693 31.8613 107.896 32.0645C108.099 32.2677 108.34 32.4289 108.606 32.5388C108.871 32.6488 109.156 32.7055 109.443 32.7055C110.023 32.7056 110.58 32.4752 110.99 32.065L115.064 27.9891C115.175 28.4032 115.405 28.7756 115.725 29.06C116.046 29.3445 116.443 29.5285 116.867 29.5893C116.971 29.6041 117.075 29.6116 117.18 29.6117C117.706 29.6109 118.214 29.4206 118.611 29.0756C119.008 28.7306 119.268 28.2541 119.343 27.7333L120.117 22.3171C120.165 21.9808 120.134 21.638 120.026 21.3158C119.919 20.9935 119.738 20.7007 119.498 20.4605C119.258 20.2203 118.965 20.0393 118.643 19.9318C118.321 19.8244 117.978 19.7935 117.642 19.8415ZM32.1033 107.885C31.9002 107.682 31.6591 107.521 31.3938 107.411C31.1284 107.301 30.8439 107.244 30.5566 107.244C30.2694 107.244 29.9849 107.301 29.7195 107.411C29.4542 107.521 29.2131 107.682 29.01 107.885L24.9359 111.961C24.8057 111.474 24.5112 111.047 24.1024 110.752C23.6936 110.457 23.1954 110.313 22.6922 110.343C22.1891 110.373 21.7117 110.576 21.3409 110.917C20.9701 111.259 20.7287 111.718 20.6574 112.217L19.8835 117.633C19.8392 117.944 19.862 118.26 19.9505 118.561C20.039 118.861 20.1911 119.14 20.3964 119.376C20.6018 119.613 20.8556 119.803 21.1407 119.934C21.4259 120.064 21.7357 120.131 22.0491 120.131C22.1526 120.131 22.256 120.124 22.3584 120.109L27.7721 119.335C28.2712 119.264 28.7304 119.023 29.0721 118.652C29.4137 118.281 29.6167 117.804 29.6467 117.301C29.6768 116.797 29.5321 116.299 29.237 115.89C28.942 115.482 28.5148 115.187 28.0276 115.057L32.1033 110.98C32.3065 110.777 32.4677 110.535 32.5776 110.27C32.6876 110.004 32.7442 109.72 32.7442 109.433C32.7442 109.145 32.6876 108.861 32.5776 108.595C32.4676 108.33 32.3065 108.089 32.1033 107.885Z" fill="url(#paint0_linear_727_5348)"/>
<path d="M98.4383 86.3871H97.3445V57.9396C97.3435 56.7794 96.8823 55.667 96.0621 54.8465C95.2419 54.026 94.1297 53.5644 92.9695 53.563H86.407C85.2469 53.5644 84.1347 54.026 83.3145 54.8465C82.4943 55.667 82.033 56.7794 82.032 57.9396V86.3871H77.657V68.8809C77.656 67.7208 77.1948 66.6084 76.3746 65.788C75.5544 64.9675 74.4422 64.5058 73.282 64.5044H66.7195C65.5594 64.5058 64.4472 64.9675 63.627 65.788C62.8068 66.6084 62.3456 67.7208 62.3445 68.8809V86.3871H57.9695V79.8223C57.9685 78.6622 57.5073 77.5498 56.6871 76.7293C55.8669 75.9088 54.7547 75.4472 53.5945 75.4458H47.032C45.8719 75.4472 44.7597 75.9088 43.9395 76.7293C43.1193 77.5498 42.6581 78.6622 42.657 79.8223V86.3871H41.5633C40.9829 86.3871 40.4263 86.6177 40.0159 87.0281C39.6056 87.4384 39.375 87.995 39.375 88.5754C39.375 89.1558 39.6056 89.7124 40.0159 90.1227C40.4263 90.5331 40.9829 90.7637 41.5633 90.7637H98.4383C99.0186 90.7637 99.5752 90.5331 99.9856 90.1227C100.396 89.7124 100.627 89.1558 100.627 88.5754C100.627 87.995 100.396 87.4384 99.9856 87.0281C99.5752 86.6177 99.0186 86.3871 98.4383 86.3871ZM53.5945 86.3871H47.032V79.8223H53.5945V86.3871ZM73.282 86.3871H66.7195V68.8809H73.282V86.3871ZM92.9695 86.3871H86.407V57.9396H92.9695V86.3871ZM47.0331 69.9751C47.5354 69.9756 48.0225 69.8023 48.4115 69.4846L64.3804 56.5056L67.3604 59.4867C67.7502 59.8763 68.2726 60.1045 68.8232 60.1257C69.3739 60.1469 69.9123 59.9595 70.3308 59.601L85.6433 46.4714C85.9828 46.1804 86.225 45.7925 86.3373 45.3597C86.4496 44.9269 86.4267 44.4702 86.2716 44.0508C86.1165 43.6315 85.8367 43.2697 85.4698 43.0142C85.103 42.7587 84.6666 42.6217 84.2195 42.6216H78.4939C77.9292 42.6218 77.3864 42.8402 76.9791 43.2313C76.5717 43.6224 76.3314 44.1558 76.3082 44.72C76.285 45.2842 76.4808 45.8356 76.8547 46.2587C77.2286 46.6819 77.7517 46.9442 78.3144 46.9906L69.0213 54.9595L66.0787 52.0158C65.6964 51.6323 65.1854 51.4045 64.6446 51.3767C64.1039 51.3489 63.5722 51.5229 63.1526 51.8651L45.6526 66.0889C45.3019 66.3741 45.0481 66.7608 44.9261 67.196C44.8041 67.6311 44.8198 68.0934 44.9711 68.5193C45.1224 68.9452 45.4018 69.3138 45.771 69.5744C46.1403 69.8351 46.5812 69.9751 47.0331 69.9751Z" fill="url(#paint1_linear_727_5348)"/>
</g>
<defs>
<linearGradient id="paint0_linear_727_5348" x1="70" y1="0" x2="70" y2="140" gradientUnits="userSpaceOnUse">
<stop stop-color="#9590BC"/>
<stop offset="1" stop-color="#737279"/>
</linearGradient>
<linearGradient id="paint1_linear_727_5348" x1="70.0008" y1="42.6216" x2="70.0008" y2="90.7637" gradientUnits="userSpaceOnUse">
<stop stop-color="#9590BC"/>
<stop offset="1" stop-color="#737279"/>
</linearGradient>
<clipPath id="clip0_727_5348">
<rect width="140" height="140" fill="white"/>
</clipPath>
</defs>
</svg>
