<svg xmlns="http://www.w3.org/2000/svg" enable-background="new 0 0 32 32" viewBox="0 0 32 32" id="Category"><path d="M12 15H6c-1.6543 0-3-1.3457-3-3V6c0-1.6543 1.3457-3 3-3h6c1.6543 0 3 1.3457 3 3v6C15 13.6543 13.6543 15 12 15zM26 15h-6c-1.6543 0-3-1.3457-3-3V6c0-1.6543 1.3457-3 3-3h6c1.6543 0 3 1.3457 3 3v6C29 13.6543 27.6543 15 26 15zM12 29H6c-1.6543 0-3-1.3457-3-3v-6c0-1.6543 1.3457-3 3-3h6c1.6543 0 3 1.3457 3 3v6C15 27.6543 13.6543 29 12 29zM26 29h-6c-1.6543 0-3-1.3457-3-3v-6c0-1.6543 1.3457-3 3-3h6c1.6543 0 3 1.3457 3 3v6C29 27.6543 27.6543 29 26 29z" fill="#ffffff" class="color000000 svgShape"></path></svg>