<svg xmlns="http://www.w3.org/2000/svg" viewBox="0 0 16 16" id="Description"><path fill="#ffffff" d="M3,14V2A1.001,1.001,0,0,1,4,1h8a1.001,1.001,0,0,1,1,1v9H11a2.00229,2.00229,0,0,0-2,2v2H4A1.001,1.001,0,0,1,3,14Z" opacity=".2" class="color008ccc svgShape"></path><rect width="6" height="1" x="5" y="4" fill="#ffffff" class="color008ccc svgShape"></rect><path fill="#ffffff" d="M12,0H4A2.00229,2.00229,0,0,0,2,2V14a2.00229,2.00229,0,0,0,2,2H9.5a.49965.49965,0,0,0,.35352-.14648l4-4A.49965.49965,0,0,0,14,11.5V2A2.00229,2.00229,0,0,0,12,0ZM3,14V2A1.001,1.001,0,0,1,4,1h8a1.001,1.001,0,0,1,1,1v9H11a2.00229,2.00229,0,0,0-2,2v2H4A1.001,1.001,0,0,1,3,14Zm9.293-2L10,14.293V13a1.001,1.001,0,0,1,1-1Z" class="color008ccc svgShape"></path><rect width="5.5" height="1" x="5" y="7" fill="#ffffff" class="color008ccc svgShape"></rect><rect width="3" height="1" x="5" y="10" fill="#ffffff" class="color008ccc svgShape"></rect></svg>