<svg width="256" height="256" viewBox="0 0 256 256" fill="none" xmlns="http://www.w3.org/2000/svg">
<path d="M98.4615 120.615H54.1538C41.9375 120.615 32 110.678 32 98.4615V54.1538C32 41.9375 41.9375 32 54.1538 32H98.4615C110.678 32 120.615 41.9375 120.615 54.1538V98.4615C120.615 110.678 110.678 120.615 98.4615 120.615ZM201.846 120.615H157.538C145.322 120.615 135.385 110.678 135.385 98.4615V54.1538C135.385 41.9375 145.322 32 157.538 32H201.846C214.063 32 224 41.9375 224 54.1538V98.4615C224 110.678 214.063 120.615 201.846 120.615ZM98.4615 224H54.1538C41.9375 224 32 214.063 32 201.846V157.538C32 145.322 41.9375 135.385 54.1538 135.385H98.4615C110.678 135.385 120.615 145.322 120.615 157.538V201.846C120.615 214.063 110.678 224 98.4615 224ZM201.846 224H157.538C145.322 224 135.385 214.063 135.385 201.846V157.538C135.385 145.322 145.322 135.385 157.538 135.385H201.846C214.063 135.385 224 145.322 224 157.538V201.846C224 214.063 214.063 224 201.846 224Z" fill="white"/>
</svg>
