<svg width="256" height="256" viewBox="0 0 256 256" fill="none" xmlns="http://www.w3.org/2000/svg">
<path d="M61.3359 200V56C61.3395 52.8184 62.7454 49.768 65.2451 47.5182C67.7448 45.2685 71.1341 44.0032 74.6693 44H181.336C184.871 44.0032 188.26 45.2685 190.76 47.5182C193.26 49.768 194.666 52.8184 194.669 56V164H168.003C160.933 164.007 154.155 166.538 149.155 171.037C144.156 175.537 141.344 181.637 141.336 188V212H74.6693C71.1341 211.997 67.7448 210.732 65.2451 208.482C62.7454 206.232 61.3395 203.182 61.3359 200Z" fill="white"/>
<path d="M168 80H88V92H168V80Z" fill="#40454B"/>
<path d="M181.333 32H74.6667C67.5967 32.0073 60.8186 34.5382 55.8194 39.0375C50.8202 43.5368 48.0081 49.637 48 56V200C48.0081 206.363 50.8202 212.463 55.8194 216.963C60.8186 221.462 67.5967 223.993 74.6667 224H148C148.875 224 149.742 223.845 150.551 223.543C151.36 223.242 152.095 222.8 152.714 222.242L206.047 174.242C206.666 173.685 207.157 173.024 207.493 172.296C207.828 171.568 208 170.788 208 170V56C207.992 49.637 205.18 43.5368 200.181 39.0375C195.181 34.5382 188.403 32.0073 181.333 32ZM61.3333 200V56C61.3369 52.8184 62.7428 49.768 65.2425 47.5182C67.7422 45.2685 71.1315 44.0032 74.6667 44H181.333C184.868 44.0032 188.258 45.2685 190.758 47.5182C193.257 49.768 194.663 52.8184 194.667 56V164H168C160.93 164.007 154.152 166.538 149.153 171.037C144.154 175.537 141.341 181.637 141.333 188V212H74.6667C71.1315 211.997 67.7422 210.732 65.2425 208.482C62.7428 206.232 61.3369 203.182 61.3333 200ZM185.24 176L154.667 203.516V188C154.67 184.818 156.076 181.768 158.576 179.518C161.076 177.268 164.465 176.003 168 176H185.24Z" fill="white"/>
<path d="M161.333 116H88V128H161.333V116Z" fill="#40454B"/>
<path d="M128 152H88V164H128V152Z" fill="#40454B"/>
</svg>
