<svg width="256" height="256" viewBox="0 0 256 256" fill="none" xmlns="http://www.w3.org/2000/svg">
<g clip-path="url(#clip0_845_7542)">
<path d="M183.173 73.3186L119.917 43.9573C122.081 41.1457 123.304 37.7263 123.654 33.9643L195.528 67.3443C194.79 67.5323 194.053 67.7203 193.137 68.2363L183.173 73.3186ZM53.2823 136.939L101.815 49.984C98.3914 48.879 95.2565 46.8529 92.9699 44.0456L36.5942 145.43C37.0183 145.039 37.51 144.914 37.9341 144.523L53.2823 136.939ZM108.078 39.6295C112.258 38.5641 114.508 34.0355 113.426 29.791C112.276 25.2813 108.201 22.6474 104.021 23.7128C99.8416 24.7781 97.5244 29.0415 98.6739 33.5512C99.7558 37.7957 103.899 40.6949 108.078 39.6295ZM234.081 145.662L204.791 81.0865C204.207 79.8227 203.132 78.6843 201.945 78.1392C201.072 77.7966 199.954 77.5168 198.97 77.7674L197.987 78.0181L42.5382 154.368C39.9689 155.588 38.9916 158.945 40.1595 161.472L69.4496 226.048C70.6851 228.84 73.863 230.008 76.1864 228.851L231.703 152.766C232.864 152.187 233.891 151.078 234.358 149.829C234.825 148.58 234.733 147.191 234.081 145.662Z" fill="white"/>
</g>
<defs>
<clipPath id="clip0_845_7542">
<rect width="256" height="256" fill="white"/>
</clipPath>
</defs>
</svg>
