<svg xmlns="http://www.w3.org/2000/svg" viewBox="0 0 100 100" id="NamePlate"><path d="M75.4 39.6 54.1 23.5c1.1-.8 1.9-1.9 2.4-3.2l24.2 18.3c-.3 0-.6 0-1 .1l-4.3.9zM19.6 50.4l27-26.4c-1.2-.7-2.2-1.7-2.8-2.9L12.4 51.9c.2-.1.4-.1.6-.2l6.6-1.3zM50 20.9c1.7 0 3-1.4 3-3 0-1.7-1.3-3-3-3s-3 1.3-3 3c0 1.6 1.3 3 3 3zm37.8 48.9-4.9-25.5c-.1-.5-.4-1-.8-1.3-.3-.2-.7-.4-1.1-.4h-.4l-66.8 13c-1.1.2-1.8 1.3-1.6 2.3l4.9 25.5c.2 1.1 1.3 1.8 2.3 1.6l66.8-12.9c.5-.1 1-.4 1.3-.8s.4-.9.3-1.5z" fill="#ffffff" class="color000000 svgShape"></path></svg>